<?xml version="1.0" encoding="UTF-8"?>
<svg version="1.1" xmlns="http://www.w3.org/2000/svg" width="500" height="212">
<path d="M0 0 C165 0 330 0 500 0 C500 69.96 500 139.92 500 212 C335 212 170 212 0 212 C0 142.04 0 72.08 0 0 Z " fill="#FEFEFE" transform="translate(0,0)"/>
<path d="M0 0 C3.45971658 2.7002666 6.32010177 5.32200222 9.0625 8.75 C13.87440436 14.31408641 19.87238283 18.05272963 26 22 C26.91233398 22.5887793 27.82466797 23.17755859 28.76464844 23.78417969 C34.11199769 27.22826425 39.47030014 30.65479796 44.8359375 34.0703125 C49.86526213 37.27218788 54.87636327 40.50049556 59.875 43.75 C65.65834409 47.50543639 71.47583192 51.20303843 77.3125 54.875 C84.68111401 59.51141443 91.99615058 64.2241083 99.28149414 68.99023438 C103.78592645 71.93140246 108.31092148 74.83337217 112.87109375 77.6875 C113.85166748 78.30318848 114.83224121 78.91887695 115.8425293 79.55322266 C117.72178202 80.7307341 119.60453655 81.90268336 121.49145508 83.06787109 C135.71102891 91.99240078 135.71102891 91.99240078 138.3125 98.0625 C137.88319592 102.09795837 135.819945 104.26664935 133 107 C130.46772568 108.8716502 127.79118338 110.43297674 125.0625 112 C123.45562909 112.94945387 121.85022762 113.90139784 120.24609375 114.85546875 C119.39772949 115.35868652 118.54936523 115.8619043 117.67529297 116.38037109 C113.89625244 118.66821147 110.19239759 121.06673051 106.48364258 123.46630859 C81.76877985 139.42785885 81.76877985 139.42785885 72.3671875 138.890625 C65.31464189 137.0252185 59.43258863 132.69131013 53.44580078 128.64697266 C50.98146818 126.9875209 48.49438067 125.36952716 45.99609375 123.76171875 C42.63008738 121.594515 39.2734365 119.41419664 35.92578125 117.21875 C32.68511498 115.09540048 29.43344134 112.99124659 26.16796875 110.90625 C25.40170166 110.41576172 24.63543457 109.92527344 23.84594727 109.41992188 C22.41744325 108.50663405 20.98708556 107.59623574 19.55444336 106.68945312 C7.50435852 98.96438311 7.50435852 98.96438311 6 94 C5.35195912 89.83402293 5.83813092 88.26129428 8.0859375 84.6328125 C10.90329295 80.83646482 14.168067 78.30994428 18.0625 75.6875 C18.67416016 75.25888672 19.28582031 74.83027344 19.91601562 74.38867188 C27.93347841 68.83278685 27.93347841 68.83278685 30.81567383 69.28466797 C35.36178378 70.77344657 39.25492038 73.7358415 43.25 76.3125 C44.18585938 76.89451172 45.12171875 77.47652344 46.0859375 78.07617188 C46.97023437 78.64529297 47.85453125 79.21441406 48.765625 79.80078125 C49.57805664 80.31809814 50.39048828 80.83541504 51.22753906 81.3684082 C51.81245117 81.9068335 52.39736328 82.44525879 53 83 C53 87.68091299 52.00354129 88.62101604 49 92 C51.32942387 93.58934649 53.66325579 95.17147829 56 96.75 C56.97259766 97.41515625 56.97259766 97.41515625 57.96484375 98.09375 C67.11031585 104.47387979 67.11031585 104.47387979 77.77734375 106.5390625 C81.78237144 105.56772011 85.17308455 103.42232239 88.6796875 101.3125 C91 100 91 100 93 100 C90.25731767 97.0867391 87.53908236 94.91112917 84.1328125 92.8203125 C83.17592529 92.22839111 82.21903809 91.63646973 81.2331543 91.02661133 C80.20746338 90.39907959 79.18177246 89.77154785 78.125 89.125 C75.94611229 87.778156 73.76773787 86.43048132 71.58984375 85.08203125 C69.93637939 84.06036865 69.93637939 84.06036865 68.24951172 83.01806641 C63.37076509 79.98818514 58.52736456 76.90398622 53.6875 73.8125 C47.67790176 69.97622123 41.66101083 66.15313259 35.62109375 62.36474609 C31.73777968 59.9248797 27.86697923 57.46565384 24 55 C23.1838623 54.48131348 22.36772461 53.96262695 21.52685547 53.42822266 C19.07201826 51.86056045 16.62849923 50.27660352 14.1875 48.6875 C13.08486816 47.98633057 13.08486816 47.98633057 11.95996094 47.27099609 C3.90597899 41.97330727 -1.70468563 35.51842232 -4 26 C-4.89612039 17.32072161 -4.06781168 9.1861296 -1 1 C-0.67 0.67 -0.34 0.34 0 0 Z " fill="#F34B13" transform="translate(37,59)"/>
<path d="M0 0 C5.99181307 3.18083904 11.5727838 6.8951772 17.16796875 10.7109375 C22.26730494 14.17322632 27.47914727 17.45503621 32.6875 20.75 C35.4695841 22.51733858 38.25079784 24.2860383 41.03173828 26.05517578 C42.55017349 27.02090658 44.06923973 27.98564709 45.58935547 28.94873047 C47.27361107 30.01939441 48.94975378 31.10279345 50.625 32.1875 C51.49382812 32.74566406 52.36265625 33.30382813 53.2578125 33.87890625 C56.43100394 36.35001526 58.94873133 38.86863239 60.171875 42.765625 C60.3511638 47.60642266 59.39258317 50.41716563 56.3125 54.1875 C51.29099263 59.28074318 43.3974686 66.04506313 36.12695312 66.90600586 C32.82905516 66.55322886 31.14390727 65.43553751 28.41796875 63.5625 C27.02094727 62.61503906 27.02094727 62.61503906 25.59570312 61.6484375 C24.63599609 60.98070312 23.67628906 60.31296875 22.6875 59.625 C21.70845703 58.95726562 20.72941406 58.28953125 19.72070312 57.6015625 C17.30655214 55.95287402 14.90023839 54.29384888 12.5 52.625 C14.11382757 49.22287701 16.08603766 46.52175481 18.5 43.625 C17.84386719 43.39941406 17.18773437 43.17382812 16.51171875 42.94140625 C12.51813431 41.19583173 8.9776629 38.90754088 5.3125 36.5625 C3.88195935 35.65424044 2.45098974 34.74665606 1.01953125 33.83984375 C0.39151611 33.43886475 -0.23649902 33.03788574 -0.88354492 32.62475586 C-5.28721023 29.90114773 -9.4291306 29.87605045 -14.5 30.625 C-21.55379492 33.36291681 -21.55379492 33.36291681 -26.5 38.625 C-25.82453125 38.85960937 -25.1490625 39.09421875 -24.453125 39.3359375 C-20.78928026 40.93523481 -17.56913926 43.04797433 -14.25 45.25 C-12.72835688 46.24684562 -11.20618854 47.24288982 -9.68359375 48.23828125 C-8.85585449 48.78049316 -8.02811523 49.32270508 -7.17529297 49.88134766 C-2.2407778 53.09747353 2.72464823 56.26534828 7.6875 59.4375 C8.75000977 60.11723877 9.81251953 60.79697754 10.90722656 61.49731445 C17.00894283 65.39922085 23.11618937 69.29229865 29.22949219 73.17602539 C31.94804685 74.90446845 34.66350859 76.63769677 37.37890625 78.37109375 C40.70523088 80.49229191 44.04609055 82.58667728 47.40234375 84.66015625 C62.24016273 93.89608508 62.24016273 93.89608508 66.5 100.625 C66.92539063 101.285 67.35078125 101.945 67.7890625 102.625 C72.35259593 111.06908906 71.42273081 121.00459756 69 130 C68.51835733 131.54750006 68.0256392 133.09188567 67.5 134.625 C63.5 134.625 63.5 134.625 61.5625 132.75390625 C60.881875 131.90699219 60.20125 131.06007812 59.5 130.1875 C49.84777807 119.09441669 37.04828778 112.1107932 24.6640625 104.45703125 C19.18502645 101.06553001 13.76654139 97.5910553 8.375 94.0625 C1.38527045 89.49167073 -5.63612014 84.97518326 -12.6875 80.5 C-19.74512393 76.02000684 -26.79234851 71.5262182 -33.79296875 66.95751953 C-38.1314 64.13280564 -42.50361642 61.36911335 -46.8984375 58.6328125 C-48.59966295 57.56639736 -50.30006903 56.49869053 -52.00009155 55.43035889 C-53.64445868 54.40191941 -55.29638726 53.38560118 -56.94848633 52.36962891 C-62.81543463 48.67680732 -67.46078985 45.30341015 -71.5 39.625 C-71.8125 36.5625 -71.8125 36.5625 -70.5 33.625 C-64.95649352 28.35227538 -58.75990242 24.47689068 -52.25 20.5 C-50.10895606 19.18036698 -47.96833657 17.86004505 -45.828125 16.5390625 C-44.76529297 15.88454102 -43.70246094 15.23001953 -42.60742188 14.55566406 C-39.71515863 12.75867964 -36.84531354 10.93227731 -33.984375 9.0859375 C-33.13907227 8.54211426 -32.29376953 7.99829102 -31.42285156 7.43798828 C-29.85867988 6.42893678 -28.29786631 5.41465164 -26.74121094 4.39404297 C-17.92741936 -1.26337714 -10.06464848 -4.74976058 0 0 Z " fill="#F34B13" transform="translate(122.5,13.375)"/>
<path d="M0 0 C3.63 0 7.26 0 11 0 C11 9.9 11 19.8 11 30 C16.94 30 22.88 30 29 30 C29.33 30.99 29.66 31.98 30 33 C34.95 22.11 39.9 11.22 45 0 C48.63 0 52.26 0 56 0 C58.28336587 5.08823185 60.56190198 10.17858746 62.8359375 15.27099609 C63.61064531 17.00401486 64.38668284 18.73643982 65.1640625 20.46826172 C66.27952407 22.95386296 67.39022728 25.44154208 68.5 27.9296875 C68.84998047 28.70682098 69.19996094 29.48395447 69.56054688 30.28463745 C72 35.77225659 72 35.77225659 72 38 C68.37 38 64.74 38 61 38 C59 34 59 34 59 31 C50.585 31.495 50.585 31.495 42 32 C41.34 33.98 40.68 35.96 40 38 C26.8 38 13.6 38 0 38 C0 25.46 0 12.92 0 0 Z " fill="#F2441B" transform="translate(371,69)"/>
<path d="M0 0 C3.63 0 7.26 0 11 0 C11 4.62 11 9.24 11 14 C15.62 14 20.24 14 25 14 C25 9.38 25 4.76 25 0 C28.63 0 32.26 0 36 0 C36 12.54 36 25.08 36 38 C32.37 38 28.74 38 25 38 C25 33.38 25 28.76 25 24 C20.38 24 15.76 24 11 24 C11 28.62 11 33.24 11 38 C7.37 38 3.74 38 0 38 C0 25.46 0 12.92 0 0 Z " fill="#F2471F" transform="translate(286,69)"/>
<path d="M0 0 C1.37478516 0.01740234 1.37478516 0.01740234 2.77734375 0.03515625 C3.69644531 0.04417969 4.61554688 0.05320312 5.5625 0.0625 C6.27277344 0.07410156 6.98304688 0.08570312 7.71484375 0.09765625 C12.22586686 8.71639909 16.27665587 17.48833104 20.15234375 26.41015625 C20.6014209 27.44277588 21.05049805 28.47539551 21.51318359 29.53930664 C24.71484375 36.96167531 24.71484375 36.96167531 24.71484375 38.09765625 C21.08484375 38.09765625 17.45484375 38.09765625 13.71484375 38.09765625 C12.72484375 36.11765625 11.73484375 34.13765625 10.71484375 32.09765625 C5.43484375 32.09765625 0.15484375 32.09765625 -5.28515625 32.09765625 C-6.27515625 34.07765625 -7.26515625 36.05765625 -8.28515625 38.09765625 C-11.91515625 38.09765625 -15.54515625 38.09765625 -19.28515625 38.09765625 C-14.97251295 28.00548418 -10.6590956 17.91345192 -6.28515625 7.84765625 C-5.84997681 6.83928711 -5.84997681 6.83928711 -5.40600586 5.81054688 C-2.9264698 0.12506281 -2.9264698 0.12506281 0 0 Z " fill="#F2431A" transform="translate(258.28515625,68.90234375)"/>
<path d="M0 0 C3.63 0 7.26 0 11 0 C11.01458252 0.77190674 11.02916504 1.54381348 11.04418945 2.33911133 C11.11858033 5.83075093 11.2152709 9.3214249 11.3125 12.8125 C11.33505859 14.02744141 11.35761719 15.24238281 11.38085938 16.49414062 C11.41630859 17.65751953 11.45175781 18.82089844 11.48828125 20.01953125 C11.51446533 21.09307861 11.54064941 22.16662598 11.56762695 23.27270508 C11.78870117 26.00393615 11.78870117 26.00393615 13.34448242 27.84643555 C15.96396554 29.67169108 17.90876546 29.45080504 21 29 C24.01223167 25.95267523 24.40000341 23.55987174 24.51171875 19.359375 C24.54716797 18.28945312 24.58261719 17.21953125 24.61914062 16.1171875 C24.64169922 15.00601563 24.66425781 13.89484375 24.6875 12.75 C24.72166016 11.62335938 24.75582031 10.49671875 24.79101562 9.3359375 C24.87343014 6.55739099 24.94260298 3.77915748 25 1 C28.3 1 31.6 1 35 1 C35.11651725 5.37477474 35.18736 9.74914827 35.25 14.125 C35.28351563 15.3625 35.31703125 16.6 35.3515625 17.875 C35.47458984 29.31654241 35.47458984 29.31654241 31 34 C24.84284079 38.64928348 19.60783577 40.01287754 12 39 C7.44756689 37.09042235 3.471309 34.36113354 1 30 C-0.09911549 26.70265354 -0.1139456 24.27041255 -0.09765625 20.80078125 C-0.09443359 19.59228516 -0.09121094 18.38378906 -0.08789062 17.13867188 C-0.07951172 15.87603516 -0.07113281 14.61339844 -0.0625 13.3125 C-0.05573242 11.40114258 -0.05573242 11.40114258 -0.04882812 9.45117188 C-0.03702873 6.30073436 -0.02056597 3.15039051 0 0 Z " fill="#F2431B" transform="translate(329,69)"/>
<path d="M0 0 C1.28648437 -0.01675781 2.57296875 -0.03351563 3.8984375 -0.05078125 C7.81649454 0.33116771 10.25501614 1.33537324 13.625 3.3125 C12.875 6.25 12.875 6.25 11.625 9.3125 C8.71799153 10.719117 7.74777995 10.35342665 4.625 9.3125 C2.89704648 9.24447033 1.16664635 9.22754355 -0.5625 9.25 C-1.46355469 9.25902344 -2.36460937 9.26804687 -3.29296875 9.27734375 C-4.32357422 9.29474609 -4.32357422 9.29474609 -5.375 9.3125 C-5.045 10.6325 -4.715 11.9525 -4.375 13.3125 C-3.42238281 13.55484375 -2.46976563 13.7971875 -1.48828125 14.046875 C-0.23402344 14.38203125 1.02023438 14.7171875 2.3125 15.0625 C3.55386719 15.38734375 4.79523438 15.7121875 6.07421875 16.046875 C10.22885788 17.52773647 13.59757442 19.25764885 15.625 23.3125 C16.09174112 26.71304245 16.25701439 29.2234233 14.49609375 32.2578125 C11.34467181 36.19091873 8.71712941 38.44779878 3.625 39.3125 C-3.35251894 39.89128037 -9.10333483 39.56447453 -15.375 36.3125 C-16.50648506 33.46368481 -16.45007197 32.53271112 -15.4375 29.5625 C-15.086875 28.82 -14.73625 28.0775 -14.375 27.3125 C-13.6325 27.6425 -12.89 27.9725 -12.125 28.3125 C-6.8628448 29.71574139 -1.7892163 29.47019562 3.625 29.3125 C3.625 28.3225 3.625 27.3325 3.625 26.3125 C2.58859375 25.99796875 1.5521875 25.6834375 0.484375 25.359375 C-0.88562131 24.92773233 -2.25540186 24.4954044 -3.625 24.0625 C-4.30691406 23.85753906 -4.98882812 23.65257813 -5.69140625 23.44140625 C-9.87428747 22.10125984 -12.60142304 20.74514476 -15.375 17.3125 C-16.94955739 14.16338521 -16.72299118 11.79241184 -16.375 8.3125 C-12.41600294 1.32882918 -7.62524089 0.02283006 0 0 Z " fill="#F2451C" transform="translate(223.375,68.6875)"/>
<path d="M0 0 C11.22 0 22.44 0 34 0 C34 2.97 34 5.94 34 9 C30.04 9 26.08 9 22 9 C22 18.57 22 28.14 22 38 C18.37 38 14.74 38 11 38 C11 28.43 11 18.86 11 9 C7.37 9 3.74 9 0 9 C0 6.03 0 3.06 0 0 Z " fill="#F24820" transform="translate(443,69)"/>
<path d="M0 0 C3.63 0 7.26 0 11 0 C11 9.9 11 19.8 11 30 C16.61 30 22.22 30 28 30 C28 32.64 28 35.28 28 38 C18.76 38 9.52 38 0 38 C0 25.46 0 12.92 0 0 Z " fill="#F2441B" transform="translate(371,69)"/>
<path d="M0 0 C5.53846154 3.07692308 5.53846154 3.07692308 7 6 C7.39447548 10.18144011 7.45035186 12.30946048 5.125 15.875 C2.28058592 18.71941408 0.6112568 19.20354172 -3.3125 19.375 C-6.91160443 19.31694993 -7.91606689 19.05481346 -11.0625 17 C-13.22259236 13.65534086 -13.67672257 11.83102236 -13.43359375 7.93359375 C-12.75194607 4.89381354 -11.19767713 3.13303956 -9 1 C-5.89046621 -0.5547669 -3.43733239 -0.28644437 0 0 Z " fill="#0C0C0C" transform="translate(313,136)"/>
<path d="M0 0 C5.625 1.125 5.625 1.125 8.3125 4.5625 C8.82425781 5.20316406 9.33601563 5.84382812 9.86328125 6.50390625 C10.23839844 6.99761719 10.61351562 7.49132812 11 8 C11.33 5.36 11.66 2.72 12 0 C13.98 0 15.96 0 18 0 C18 6.27 18 12.54 18 19 C13 19 13 19 10.98046875 17.25 C10.09294922 16.13625 10.09294922 16.13625 9.1875 15 C8.58292969 14.2575 7.97835938 13.515 7.35546875 12.75 C6.90816406 12.1725 6.46085937 11.595 6 11 C5.67 13.64 5.34 16.28 5 19 C3.35 19 1.7 19 0 19 C0 12.73 0 6.46 0 0 Z " fill="#151515" transform="translate(397,136)"/>
<path d="M0 0 C10.98214286 -0.53571429 10.98214286 -0.53571429 14.6875 1.625 C17 4 17 4 17.5625 7.0625 C16.96290157 10.19373623 16.52681935 11.15347816 14 13 C11.29120665 14.35439668 8.99066732 14.06501451 6 14 C6 15.65 6 17.3 6 19 C4.02 19 2.04 19 0 19 C0 12.73 0 6.46 0 0 Z " fill="#181818" transform="translate(355,136)"/>
<path d="M0 0 C10.98214286 -0.53571429 10.98214286 -0.53571429 14.6875 1.625 C17 4 17 4 17.5625 7.0625 C16.96290157 10.19373623 16.52681935 11.15347816 14 13 C11.29120665 14.35439668 8.99066732 14.06501451 6 14 C6 15.65 6 17.3 6 19 C4.02 19 2.04 19 0 19 C0 12.73 0 6.46 0 0 Z " fill="#181818" transform="translate(329,136)"/>
<path d="M0 0 C1.65 0 3.3 0 5 0 C5 6.27 5 12.54 5 19 C3.35 19 1.7 19 0 19 C0 16.69 0 14.38 0 12 C-2.31 12 -4.62 12 -7 12 C-7 14.31 -7 16.62 -7 19 C-8.65 19 -10.3 19 -12 19 C-12 13.06 -12 7.12 -12 1 C-10.35 1 -8.7 1 -7 1 C-7 2.98 -7 4.96 -7 7 C-4.69 7 -2.38 7 0 7 C0 4.69 0 2.38 0 0 Z " fill="#0B0B0B" transform="translate(285,136)"/>
<path d="M0 0 C2.9375 1.5 2.9375 1.5 5 3 C4.01 4.485 4.01 4.485 3 6 C0.87109375 6.2578125 0.87109375 6.2578125 -1.5625 6.125 C-3.04055167 6.05405352 -4.52025793 6.00579155 -6 6 C-7.41577477 7.18424326 -7.41577477 7.18424326 -7.0625 10.5625 C-7.041875 11.696875 -7.02125 12.83125 -7 14 C-4.69 14.33 -2.38 14.66 0 15 C0 13.02 0 11.04 0 9 C1.65 9 3.3 9 5 9 C5 11.64 5 14.28 5 17 C0.68390526 19.43697866 -3.12932313 19.82333506 -8 19 C-11.0432531 17.0125694 -12.62073803 15.67958873 -13.4375 12.0625 C-13.67021319 8.22273235 -13.23162678 6.36288196 -11.125 3.0625 C-7.50882222 -0.44731961 -4.97588405 -0.33734807 0 0 Z " fill="#111111" transform="translate(437,136)"/>
<path d="M0 0 C0.66 0.33 1.32 0.66 2 1 C1.67 2.32 1.34 3.64 1 5 C-1.64 4.67 -4.28 4.34 -7 4 C-6.67 4.99 -6.34 5.98 -6 7 C-4.15640378 7.83475519 -4.15640378 7.83475519 -2 8.375 C1.84381997 9.69544895 1.84381997 9.69544895 3.25 12.4375 C3 15 3 15 1.6875 17.3125 C-2.35179833 19.8488036 -6.34408333 19.49479254 -11 19 C-11.66 18.67 -12.32 18.34 -13 18 C-12.67 16.68 -12.34 15.36 -12 14 C-9.03 14.33 -6.06 14.66 -3 15 C-3.79191018 12.83762122 -3.79191018 12.83762122 -5.8125 12.359375 C-6.534375 12.15828125 -7.25625 11.9571875 -8 11.75 C-10.1875 10.99609375 -10.1875 10.99609375 -12 10 C-13 6.8125 -13 6.8125 -13 4 C-8.61970306 -0.38029694 -5.90750084 -0.48422138 0 0 Z " fill="#131313" transform="translate(261,136)"/>
<path d="M0 0 C1.98 0 3.96 0 6 0 C6 6.27 6 12.54 6 19 C4.02 19 2.04 19 0 19 C0 12.73 0 6.46 0 0 Z " fill="#272727" transform="translate(381,136)"/>
<path d="M0 0 C3 0.25 3 0.25 5 2.25 C4.625 5.875 4.625 5.875 4 9.25 C-1.44736842 10.58157895 -1.44736842 10.58157895 -3.875 9.125 C-5.3568671 6.65522151 -5.3633156 5.08386167 -5 2.25 C-3 0.25 -3 0.25 0 0 Z " fill="#F3F3F3" transform="translate(310,140.75)"/>
<path d="M0 0 C0.66 0 1.32 0 2 0 C3.32 3.63 4.64 7.26 6 11 C2.7 11 -0.6 11 -4 11 C-2.68 7.37 -1.36 3.74 0 0 Z " fill="#FDEBE7" transform="translate(260,81)"/>
<path d="M0 0 C0.66 0 1.32 0 2 0 C2.67119549 1.4562545 3.33681807 2.91507867 4 4.375 C4.556875 5.59316406 4.556875 5.59316406 5.125 6.8359375 C6 9 6 9 6 11 C3.03 11 0.06 11 -3 11 C-2.44894091 7.0507432 -1.61064629 3.65079826 0 0 Z " fill="#FDEDE9" transform="translate(420,81)"/>
<path d="M0 0 C1.65 0 3.3 0 5 0 C5.5625 1.9375 5.5625 1.9375 6 4 C5 5 5 5 2.4375 5.0625 C1.2309375 5.0315625 1.2309375 5.0315625 0 5 C0 3.35 0 1.7 0 0 Z " fill="#EDEDED" transform="translate(361,141)"/>
<path d="M0 0 C1.65 0 3.3 0 5 0 C5.5625 1.9375 5.5625 1.9375 6 4 C5 5 5 5 2.4375 5.0625 C1.2309375 5.0315625 1.2309375 5.0315625 0 5 C0 3.35 0 1.7 0 0 Z " fill="#EDEDED" transform="translate(335,141)"/>
</svg>
