<svg width="830" height="254" viewBox="0 0 830 254" fill="none" xmlns="http://www.w3.org/2000/svg">
<path d="M387.945 247C387.945 248.105 387.05 249 385.945 249H365.105C364.001 249 363.105 248.105 363.105 247V117.5C363.105 116.395 364.001 115.5 365.105 115.5H385.945C387.05 115.5 387.945 116.395 387.945 117.5V119.533C387.945 121.41 390.405 122.341 391.807 121.093C393.755 119.361 395.888 117.853 398.205 116.568C402.165 114.313 406.785 113.186 412.065 113.186C418.605 113.186 424.725 114.402 430.425 116.835C436.185 119.268 441.225 122.65 445.545 126.981C449.865 131.253 453.255 136.207 455.715 141.844C458.175 147.481 459.405 153.533 459.405 160C459.405 166.467 458.175 172.549 455.715 178.245C453.255 183.941 449.865 188.955 445.545 193.286C441.225 197.558 436.185 200.91 430.425 203.343C424.725 205.776 418.605 206.992 412.065 206.992C406.785 206.992 402.165 205.865 398.205 203.61C395.875 202.283 393.732 200.751 391.776 199.014C390.379 197.773 387.945 198.704 387.945 200.572V247ZM411.705 136.771C407.625 136.771 403.935 137.839 400.635 139.975C397.395 142.052 394.815 144.84 392.895 148.341C391.035 151.842 390.105 155.728 390.105 160C390.105 164.272 391.035 168.188 392.895 171.748C394.815 175.249 397.395 178.037 400.635 180.114C403.935 182.191 407.625 183.229 411.705 183.229C415.785 183.229 419.505 182.191 422.865 180.114C426.285 178.037 428.985 175.249 430.965 171.748C433.005 168.247 434.025 164.331 434.025 160C434.025 155.787 433.035 151.931 431.055 148.43C429.075 144.87 426.375 142.052 422.955 139.975C419.595 137.839 415.845 136.771 411.705 136.771Z" fill="#F23E14"/>
<path d="M304.444 206.814C296.164 206.814 288.604 204.708 281.764 200.495C274.984 196.282 269.554 190.646 265.474 183.585C261.454 176.465 259.444 168.603 259.444 160C259.444 153.473 260.614 147.392 262.954 141.755C265.294 136.059 268.504 131.075 272.584 126.803C276.724 122.472 281.524 119.09 286.984 116.657C292.444 114.224 298.264 113.008 304.444 113.008C312.724 113.008 320.254 115.114 327.034 119.327C333.874 123.54 339.304 129.206 343.324 136.326C347.404 143.446 349.444 151.337 349.444 160C349.444 166.467 348.274 172.519 345.934 178.156C343.594 183.793 340.354 188.777 336.214 193.108C332.134 197.38 327.364 200.732 321.904 203.165C316.504 205.598 310.684 206.814 304.444 206.814ZM304.444 182.25C308.284 182.25 311.734 181.241 314.794 179.224C317.854 177.147 320.254 174.418 321.994 171.036C323.734 167.654 324.604 163.975 324.604 160C324.604 155.906 323.674 152.168 321.814 148.786C320.014 145.345 317.584 142.615 314.524 140.598C311.464 138.581 308.104 137.572 304.444 137.572C300.664 137.572 297.244 138.61 294.184 140.687C291.124 142.764 288.694 145.493 286.894 148.875C285.154 152.257 284.284 155.965 284.284 160C284.284 164.213 285.184 168.01 286.984 171.392C288.844 174.715 291.304 177.355 294.364 179.313C297.424 181.271 300.784 182.25 304.444 182.25Z" fill="#F23E14"/>
<path d="M248.61 147.896V202.5C248.61 203.605 247.715 204.5 246.61 204.5H225.77C224.665 204.5 223.77 203.605 223.77 202.5V154.66C223.77 151.515 222.99 148.697 221.43 146.205C219.93 143.654 217.89 141.636 215.31 140.153C212.79 138.67 209.97 137.928 206.85 137.928C203.73 137.928 200.88 138.67 198.3 140.153C195.72 141.636 193.68 143.654 192.18 146.205C190.68 148.697 189.93 151.515 189.93 154.66V202.5C189.93 203.605 189.035 204.5 187.93 204.5H167.089C165.985 204.5 165.089 203.605 165.089 202.501L165.001 73.0013C165.001 71.8962 165.896 71 167.001 71H187.844C188.947 71 189.842 71.8933 189.844 72.9965L189.922 117.441C189.925 119.196 192.085 120.155 193.52 119.145C195.634 117.657 197.947 116.412 200.46 115.411C204.54 113.809 208.83 113.008 213.33 113.008C219.87 113.008 225.78 114.58 231.06 117.725C236.4 120.87 240.66 125.082 243.84 130.363C247.02 135.584 248.61 141.429 248.61 147.896Z" fill="#F23E14"/>
<path d="M803.234 115.474C803.234 114.369 804.129 113.474 805.234 113.474H827.09C828.195 113.474 829.09 114.369 829.09 115.474V208.47C829.09 215.402 827.685 221.648 824.875 227.206C822.064 232.827 818.223 237.637 813.352 241.634C808.542 245.631 802.984 248.691 796.676 250.815C790.43 252.938 783.81 254 776.815 254C770.194 254 763.855 252.688 757.797 250.065C751.739 247.505 746.367 243.945 741.683 239.385C737.476 235.29 734.1 230.641 731.556 225.438C731.075 224.454 731.524 223.281 732.52 222.826L752.455 213.729C753.481 213.26 754.685 213.738 755.199 214.743C756.394 217.081 757.884 219.143 759.671 220.93C761.981 223.178 764.605 224.895 767.54 226.082C770.538 227.331 773.629 227.956 776.815 227.956C780.25 227.956 783.529 227.55 786.652 226.738C789.837 225.926 792.679 224.708 795.177 223.084C797.675 221.46 799.642 219.431 801.079 216.995C802.515 214.559 803.234 211.717 803.234 208.47V203.265C803.234 201.379 800.742 200.444 799.332 201.697C797.349 203.461 795.152 205 792.741 206.315C788.681 208.501 783.966 209.594 778.595 209.594C771.849 209.594 765.51 208.313 759.577 205.753C753.706 203.192 748.522 199.663 744.025 195.166C739.528 190.607 736 185.361 733.439 179.427C730.878 173.494 729.598 167.124 729.598 160.316C729.598 153.508 730.878 147.138 733.439 141.204C736 135.271 739.528 130.056 744.025 125.559C748.522 121 753.706 117.44 759.577 114.879C765.51 112.318 771.849 111.038 778.595 111.038C783.966 111.038 788.681 112.162 792.741 114.411C795.148 115.687 797.342 117.198 799.323 118.943C800.739 120.19 803.234 119.253 803.234 117.367V115.474ZM778.969 184.767C783.216 184.767 787.058 183.674 790.493 181.488C793.928 179.24 796.613 176.273 798.549 172.588C800.548 168.904 801.547 164.813 801.547 160.316C801.547 155.819 800.548 151.728 798.549 148.043C796.613 144.296 793.928 141.329 790.493 139.143C787.058 136.957 783.216 135.864 778.969 135.864C774.785 135.864 770.944 136.957 767.446 139.143C764.011 141.329 761.263 144.296 759.202 148.043C757.141 151.728 756.111 155.819 756.111 160.316C756.111 164.813 757.141 168.935 759.202 172.682C761.263 176.367 764.011 179.303 767.446 181.488C770.944 183.674 774.785 184.767 778.969 184.767Z" fill="#1F1F39"/>
<path d="M718.32 147.575V205.158C718.32 206.262 717.425 207.158 716.32 207.158H694.464C693.359 207.158 692.464 206.262 692.464 205.158V154.695C692.464 151.385 691.652 148.418 690.028 145.795C688.466 143.109 686.343 140.986 683.657 139.424C681.034 137.863 678.099 137.082 674.851 137.082C671.603 137.082 668.637 137.863 665.951 139.424C663.265 140.986 661.142 143.109 659.58 145.795C658.019 148.418 657.238 151.385 657.238 154.695V205.158C657.238 206.262 656.343 207.158 655.238 207.158H633.38C632.276 207.158 631.381 206.264 631.38 205.16L631.29 115.476C631.289 114.37 632.184 113.474 633.29 113.474H655.172C656.266 113.474 657.157 114.353 657.171 115.447L657.176 115.801C657.2 117.55 659.354 118.482 660.771 117.457C663.027 115.826 665.503 114.467 668.199 113.38C672.446 111.694 676.912 110.851 681.596 110.851C688.404 110.851 694.556 112.506 700.052 115.816C705.611 119.126 710.045 123.56 713.355 129.119C716.665 134.615 718.32 140.767 718.32 147.575Z" fill="#1F1F39"/>
<path d="M583.896 115.474C583.896 114.369 584.792 113.474 585.896 113.474H607.753C608.858 113.474 609.753 114.369 609.753 115.474V205.158C609.753 206.262 608.858 207.158 607.753 207.158H585.896C584.792 207.158 583.896 206.262 583.896 205.158V115.474ZM597.012 102.7C593.265 102.7 590.111 101.451 587.55 98.9526C584.989 96.4544 583.709 93.3628 583.709 89.6779C583.709 85.993 584.989 82.9014 587.55 80.4032C590.111 77.9049 593.234 76.6558 596.918 76.6558C600.603 76.6558 603.695 77.9049 606.193 80.4032C608.754 82.9014 610.034 85.993 610.034 89.6779C610.034 93.3628 608.785 96.4544 606.287 98.9526C603.851 101.451 600.76 102.7 597.012 102.7Z" fill="#1F1F39"/>
<path d="M568.01 203.961C568.995 205.28 568.054 207.158 566.408 207.158H537.704C537.057 207.158 536.45 206.845 536.075 206.318L503.228 160.174C502.469 159.108 500.908 159.046 500.066 160.049L497.324 163.318C497.022 163.678 496.857 164.133 496.857 164.603V205.158C496.857 206.262 495.961 207.158 494.857 207.158H473C471.895 207.158 471 206.262 471 205.158V78C471 76.8954 471.895 76 473 76H494.857C495.961 76 496.857 76.8954 496.857 78V118.179C496.857 120.048 499.191 120.896 500.391 119.463L536.167 76.7164C536.547 76.2623 537.108 76 537.7 76H566.203C567.902 76 568.827 77.9845 567.734 79.2858L519.61 136.618C519.013 137.329 518.984 138.357 519.54 139.101L568.01 203.961Z" fill="#1F1F39"/>
<path d="M140.863 203.67C139.38 204.048 137.855 204.238 136.324 204.238H18.3281C15.7057 204.237 13.114 203.673 10.728 202.585C8.34193 201.497 6.21702 199.91 4.49668 197.931C2.77633 195.952 1.50059 193.627 0.755535 191.112C0.0104839 188.598 -0.186521 185.953 0.177799 183.356L1.6274 173.073H81.8478L140.863 203.67Z" fill="url(#paint0_linear_3124_586)"/>
<path d="M134.762 75.4924C138.097 78.3905 140.273 82.396 140.889 86.7713L143.521 105.435H61.0489L15.248 81.6897C16.4485 79.0741 18.248 76.778 20.5009 74.9872C20.974 74.609 21.4686 74.2584 21.9823 73.9373C24.9376 72.0153 28.3884 70.9947 31.9139 71H36.8432H54.8063H99.8395H117.812H122.738C127.157 70.999 131.427 72.5944 134.762 75.4924Z" fill="url(#paint1_linear_3124_586)"/>
<path d="M140.863 203.67L81.8634 173.073L55.7101 159.515L7.08301 134.301L13.7665 86.7714C14.0101 85.0165 14.5092 83.3066 15.2478 81.6962L61.0486 105.442L95.9409 123.522L150.008 151.56L154.477 183.353C155.106 187.821 154.065 192.365 151.553 196.113C149.041 199.862 145.235 202.552 140.863 203.67Z" fill="url(#paint2_linear_3124_586)"/>
<g style="mix-blend-mode:multiply" opacity="0.3">
<path d="M140.863 203.67C139.38 204.048 137.855 204.238 136.324 204.238H114.342C109.603 192.936 97.0799 184.209 81.8511 173.073L140.863 203.67Z" fill="black"/>
</g>
<g style="mix-blend-mode:multiply" opacity="0.3">
<path d="M61.0489 105.436L15.248 81.6898C16.4485 79.0742 18.248 76.7781 20.5009 74.9873C20.974 74.609 21.4686 74.2585 21.9823 73.9374C27.527 84.0054 48.3069 97.3311 61.0489 105.436Z" fill="black"/>
</g>
<path d="M46.5818 48.9889H43.2031V51.3475H46.5818V48.9889Z" fill="url(#paint3_linear_3124_586)"/>
<path d="M38.4944 44.7149L43.2031 47.4351V48.9889H46.5818V47.4351L51.3163 44.7149L56.0249 47.4351V48.9889H64.689C63.8579 46.982 63.5346 44.8011 63.7477 42.6394C63.9607 40.4778 64.7036 38.402 65.9105 36.596C67.1174 34.7899 68.751 33.3094 70.6667 32.2855C72.5824 31.2616 74.721 30.7259 76.8932 30.7259C79.0653 30.7259 81.2039 31.2616 83.1196 32.2855C85.0353 33.3094 86.669 34.7899 87.8758 36.596C89.0827 38.402 89.8256 40.4778 90.0386 42.6394C90.2517 44.8011 89.9284 46.982 89.0973 48.9889H97.7313V47.4351L102.466 44.7149L107.179 47.4351V48.9889H110.557V47.4351L115.266 44.7149L119.979 47.4351V48.9889H127.055C129.788 43.3118 130.593 37.3249 130.791 33.3264C130.805 33.0124 130.72 32.702 130.549 32.4383C130.378 32.1747 130.129 31.9709 129.837 31.8553C129.545 31.7397 129.224 31.7182 128.919 31.7936C128.614 31.8691 128.34 32.0377 128.135 32.2762C123.224 38.0307 116.127 41.8743 114.177 38.6204C112.83 36.378 112.709 28.8372 112.851 22.8417C112.855 22.5861 112.769 22.3373 112.609 22.1382C112.448 21.9391 112.224 21.8023 111.973 21.7513C111.723 21.7003 111.462 21.7383 111.237 21.8588C111.011 21.9793 110.835 22.1747 110.738 22.4113C107.205 30.7052 102.272 35.5172 102.272 35.5172C102.272 35.5172 99.539 40.979 88.6153 24.0038C77.6916 7.02854 81.9784 3.12475 81.9784 3.12475C81.9784 3.12475 79.0215 0 76.891 0C74.7605 0 71.8036 3.12475 71.8036 3.12475C71.8036 3.12475 76.1077 7.02854 65.1667 24.0038C54.2258 40.979 51.5099 35.5172 51.5099 35.5172C51.5099 35.5172 46.5818 30.7052 43.0438 22.4113C42.9471 22.1747 42.7708 21.9793 42.5453 21.8588C42.3199 21.7383 42.0594 21.7003 41.8089 21.7513C41.5585 21.8023 41.3336 21.9391 41.1733 22.1382C41.0129 22.3373 40.9271 22.5861 40.9305 22.8417C41.0726 28.8372 40.9305 36.378 39.6049 38.6204C37.6551 41.8743 30.5664 38.0307 25.6468 32.2762C25.4421 32.0377 25.1682 31.8691 24.8632 31.7936C24.5581 31.7182 24.2371 31.7397 23.9449 31.8553C23.6527 31.9709 23.4038 32.1747 23.2328 32.4383C23.0619 32.702 22.9774 33.0124 22.9912 33.3264C23.1892 37.3249 23.994 43.3118 26.7271 48.9889H33.8073V47.4351L38.4944 44.7149ZM72.1608 18.8905L76.8695 16.2005L81.5781 18.9164V24.3567L76.8695 27.0769L72.1608 24.3567V18.8905Z" fill="url(#paint4_linear_3124_586)"/>
<path d="M115.245 55.5956L110.536 52.8754V51.3475H107.157V52.8754L102.466 55.5956L97.7313 52.8754V51.3475H87.8018C86.5906 53.1317 84.961 54.5924 83.0554 55.602C81.1498 56.6115 79.026 57.1394 76.8695 57.1394C74.713 57.1394 72.5892 56.6115 70.6836 55.602C68.778 54.5924 67.1484 53.1317 65.9372 51.3475H56.0034V52.8754L51.2947 55.5956L46.5603 52.8754V51.3475H43.1816V52.8754L38.4729 55.5956L33.7643 52.8754V51.3475H28.1963C27.644 51.3475 27.1963 51.7952 27.1963 52.3475V58.8394C27.1963 59.3917 27.644 59.8394 28.1963 59.8394H125.543C126.095 59.8394 126.543 59.3917 126.543 58.8394V52.3475C126.543 51.7952 126.095 51.3475 125.543 51.3475H119.958V52.8754L115.245 55.5956Z" fill="url(#paint5_linear_3124_586)"/>
<path d="M44.9936 16.2005C44.9936 18.6883 43.3624 20.7069 41.3481 20.7069C39.3338 20.7069 37.6982 18.6883 37.6982 16.2005C37.6982 13.7128 39.3338 11.6899 41.3481 11.6899C43.3624 11.6899 44.9936 13.6956 44.9936 16.2005Z" fill="#FF6946"/>
<path d="M27.2997 26.1343C27.2997 28.622 25.6641 30.6406 23.6498 30.6406C21.6355 30.6406 20 28.622 20 26.1343C20 23.6465 21.6355 21.6236 23.6498 21.6236C25.6641 21.6236 27.2997 23.6422 27.2997 26.1343Z" fill="#FF6946"/>
<path d="M108.746 16.2005C108.746 18.6883 110.377 20.7069 112.391 20.7069C114.405 20.7069 116.041 18.6883 116.041 16.2005C116.041 13.7128 114.41 11.6899 112.391 11.6899C110.373 11.6899 108.746 13.6956 108.746 16.2005Z" fill="#FF6946"/>
<path d="M126.439 26.1343C126.439 28.622 128.075 30.6406 130.089 30.6406C132.104 30.6406 133.739 28.622 133.739 26.1343C133.739 23.6465 132.104 21.6236 130.089 21.6236C128.075 21.6236 126.439 23.6422 126.439 26.1343Z" fill="#FF6946"/>
<path d="M34.8232 48.0162V52.316L38.5463 54.468L42.2693 52.316V48.0162L38.5463 45.8685L34.8232 48.0162Z" fill="#FF6946"/>
<path d="M47.6318 48.0162V52.316L51.3592 54.468L55.0822 52.316V48.0162L51.3592 45.8685L47.6318 48.0162Z" fill="#FF6946"/>
<path d="M98.7339 48.0162V52.316L102.457 54.468L106.184 52.316V48.0162L102.457 45.8685L98.7339 48.0162Z" fill="#FF6946"/>
<path d="M111.569 48.0162V52.316L115.292 54.468L119.015 52.316V48.0162L115.292 45.8685L111.569 48.0162Z" fill="#FF6946"/>
<path d="M125.539 61.9871H28.2954C27.7431 61.9871 27.2954 62.4348 27.2954 62.9871V64C27.2954 64.5523 27.7431 65 28.2954 65H125.539C126.091 65 126.539 64.5523 126.539 64V62.9871C126.539 62.4348 126.091 61.9871 125.539 61.9871Z" fill="#FF6946"/>
<defs>
<linearGradient id="paint0_linear_3124_586" x1="108.27" y1="176.488" x2="98.4108" y2="221.936" gradientUnits="userSpaceOnUse">
<stop stop-color="#FFA10E"/>
<stop offset="1" stop-color="#F23E14"/>
</linearGradient>
<linearGradient id="paint1_linear_3124_586" x1="113.841" y1="74.7734" x2="100.898" y2="123.947" gradientUnits="userSpaceOnUse">
<stop stop-color="#FFA10E"/>
<stop offset="1" stop-color="#F23E14"/>
</linearGradient>
<linearGradient id="paint2_linear_3124_586" x1="2.94035" y1="99.4405" x2="166.414" y2="193.481" gradientUnits="userSpaceOnUse">
<stop stop-color="#FFA30D"/>
<stop offset="1" stop-color="#F23E14"/>
</linearGradient>
<linearGradient id="paint3_linear_3124_586" x1="45.8" y1="49.2474" x2="44.1214" y2="51.6999" gradientUnits="userSpaceOnUse">
<stop stop-color="#FFA10E"/>
<stop offset="1" stop-color="#F23E14"/>
</linearGradient>
<linearGradient id="paint4_linear_3124_586" x1="105.848" y1="5.36815" x2="78.0401" y2="67.7803" gradientUnits="userSpaceOnUse">
<stop stop-color="#FFA10E"/>
<stop offset="1" stop-color="#F23E14"/>
</linearGradient>
<linearGradient id="paint5_linear_3124_586" x1="103.555" y1="52.278" x2="102.476" y2="65.1541" gradientUnits="userSpaceOnUse">
<stop stop-color="#FFA10E"/>
<stop offset="1" stop-color="#F23E14"/>
</linearGradient>
</defs>
</svg>
