<svg width="20" height="20" viewBox="0 0 20 20" fill="none" xmlns="http://www.w3.org/2000/svg">
<g id="Iconex/Filled/Info square">
<g id="Info square">
<path id="Subtract" fill-rule="evenodd" clip-rule="evenodd" d="M1.04169 5.83366C1.04169 3.18729 3.18699 1.04199 5.83335 1.04199H14.1667C16.8131 1.04199 18.9584 3.18729 18.9584 5.83366V14.167C18.9584 16.8134 16.8131 18.9587 14.1667 18.9587H5.83335C3.18699 18.9587 1.04169 16.8134 1.04169 14.167V5.83366ZM11.0417 9.16699C11.0417 8.82181 10.7619 8.54199 10.4167 8.54199L8.75001 8.54199C8.40483 8.54199 8.12501 8.82181 8.12501 9.16699C8.12501 9.51217 8.40483 9.79199 8.75001 9.79199H9.79168V14.167C9.79168 14.5122 10.0715 14.792 10.4167 14.792C10.7619 14.792 11.0417 14.5122 11.0417 14.167V9.16699ZM11.0417 5.83332C11.0417 5.48814 10.7619 5.20832 10.4167 5.20832C10.0715 5.20832 9.79168 5.48814 9.79168 5.83332V6.66665C9.79168 7.01183 10.0715 7.29165 10.4167 7.29165C10.7619 7.29165 11.0417 7.01183 11.0417 6.66665V5.83332Z" fill="#A0A3BD"/>
</g>
</g>
</svg>
