<svg width="20" height="20" viewBox="0 0 20 20" fill="none" xmlns="http://www.w3.org/2000/svg">
<path fill-rule="evenodd" clip-rule="evenodd" d="M7.08503 5.20841C5.10111 5.20841 3.42363 6.67707 3.16142 8.6436L2.38365 14.4769C2.06725 16.8499 3.9133 18.9584 6.30726 18.9584H13.6927C16.0867 18.9584 17.9327 16.8499 17.6163 14.4769L16.8385 8.6436C16.5763 6.67708 14.8989 5.20841 12.9149 5.20841H7.08503ZM6.04171 5.00008C6.04171 2.81396 7.81391 1.04175 10 1.04175C12.1862 1.04175 13.9584 2.81395 13.9584 5.00008V7.50008C13.9584 7.84526 13.6786 8.12508 13.3334 8.12508C12.9882 8.12508 12.7084 7.84526 12.7084 7.50008V5.00008C12.7084 3.50431 11.4958 2.29175 10 2.29175C8.50427 2.29175 7.29171 3.50431 7.29171 5.00008V7.50008C7.29171 7.84526 7.01189 8.12508 6.66671 8.12508C6.32153 8.12508 6.04171 7.84526 6.04171 7.50008V5.00008Z" fill="white"/>
</svg>
