<svg width="20" height="22" viewBox="0 0 20 22" fill="none" xmlns="http://www.w3.org/2000/svg">
<g id="Bag 2">
<path id="Exclude" fill-rule="evenodd" clip-rule="evenodd" d="M6.50199 5.25C4.12128 5.25 2.1083 7.01239 1.79366 9.37222L0.860326 16.3722C0.480653 19.2198 2.69591 21.75 5.56866 21.75H14.4312C17.3039 21.75 19.5192 19.2198 19.1395 16.3722L18.2062 9.37222C17.8915 7.01239 15.8786 5.25 13.4979 5.25H6.50199ZM5.25 5C5.25 2.37665 7.37665 0.25 10 0.25C12.6234 0.25 14.75 2.37665 14.75 5V8C14.75 8.41421 14.4142 8.75 14 8.75C13.5858 8.75 13.25 8.41421 13.25 8V5C13.25 3.20507 11.7949 1.75 10 1.75C8.20507 1.75 6.75 3.20507 6.75 5V8C6.75 8.41421 6.41421 8.75 6 8.75C5.58579 8.75 5.25 8.41421 5.25 8V5Z" fill="#1F1F39"/>
</g>
</svg>
