<svg width="20" height="20" viewBox="0 0 20 20" fill="none" xmlns="http://www.w3.org/2000/svg">
<g id="Iconex/Filled/Check">
<g id="Check">
<path id="Subtract" fill-rule="evenodd" clip-rule="evenodd" d="M1.04175 5.83341C1.04175 3.18705 3.18705 1.04175 5.83341 1.04175H14.1667C16.8131 1.04175 18.9584 3.18705 18.9584 5.83341V14.1667C18.9584 16.8131 16.8131 18.9584 14.1667 18.9584H5.83341C3.18705 18.9584 1.04175 16.8131 1.04175 14.1667V5.83341ZM7.47481 10.0254L9.14147 11.692C9.38555 11.9361 9.78128 11.9361 10.0254 11.692L13.3587 8.35869C13.6028 8.11461 13.6028 7.71888 13.3587 7.47481C13.1146 7.23073 12.7189 7.23073 12.4748 7.47481L9.58341 10.3662L8.35869 9.14147C8.11461 8.8974 7.71888 8.8974 7.47481 9.14147C7.23073 9.38555 7.23073 9.78128 7.47481 10.0254Z" fill="#F23E14"/>
</g>
</g>
</svg>
