<svg width="20" height="20" viewBox="0 0 20 20" fill="none" xmlns="http://www.w3.org/2000/svg">
<g id="Iconex/Filled/Calling">
<g id="Calling">
<path id="Union" d="M15.885 17.4746C14.2564 19.1032 10.0857 17.5729 6.56939 14.0566C3.0531 10.5403 1.52283 6.36954 3.15142 4.74093L4.22373 3.66863C4.964 2.92836 6.18379 2.94792 6.9482 3.71234L8.6091 5.37324C9.37352 6.13766 9.39308 7.35744 8.65281 8.09772L8.42249 8.32803C8.02281 8.72772 7.98371 9.37249 8.35509 9.82253C8.71331 10.2566 9.0995 10.689 9.51823 11.1077C9.93696 11.5265 10.3693 11.9127 10.8034 12.2709C11.2535 12.6423 11.8983 12.6032 12.2979 12.2035L12.5283 11.9732C13.2685 11.2329 14.4883 11.2525 15.2527 12.0169L16.9136 13.6778C17.6781 14.4422 17.6976 15.662 16.9573 16.4023L15.885 17.4746Z" fill="#A0A3BD" stroke="#A0A3BD" stroke-width="1.25"/>
<path id="Rectangle 2" d="M14.6887 8.12551C14.4854 7.62952 14.1824 7.16484 13.7797 6.76211C13.3997 6.38213 12.9645 6.0909 12.5 5.88844" stroke="#A0A3BD" stroke-width="1.25" stroke-linecap="round"/>
<path id="Rectangle 3" d="M12.5 3.05308C13.6122 3.45601 14.6557 4.10329 15.5474 4.99495C16.4614 5.90898 17.1187 6.9826 17.5191 8.12619" stroke="#A0A3BD" stroke-width="1.25" stroke-linecap="round"/>
</g>
</g>
</svg>
