<svg width="24" height="24" viewBox="0 0 24 24" fill="none" xmlns="http://www.w3.org/2000/svg">
<g id="Iconex/Two Tone/Sale">
<g id="Sale">
<path id="Subtract" opacity="0.3" fill-rule="evenodd" clip-rule="evenodd" d="M13.5745 2.23621C14.1697 1.98986 15.055 1.64707 15.9344 1.9931C16.0556 2.04079 16.1757 2.09062 16.2947 2.14254C17.1603 2.52014 17.5437 3.3879 17.7904 3.98274C17.8345 4.08908 17.8748 4.18902 17.9132 4.28449C17.9993 4.498 18.0763 4.68923 18.1671 4.87955C18.2938 5.14514 18.4137 5.332 18.5405 5.45888C18.6674 5.58575 18.8543 5.70565 19.1199 5.83232C19.3102 5.92311 19.5014 6.00013 19.715 6.08616C19.8104 6.1246 19.9105 6.16491 20.0167 6.20898C20.6116 6.45566 21.4794 6.83907 21.8571 7.70462C21.9091 7.8238 21.959 7.94411 22.0068 8.0655C22.3528 8.94491 22.01 9.83015 21.7637 10.4254C21.7196 10.5318 21.6774 10.6309 21.637 10.7257C21.5469 10.9374 21.466 11.1274 21.3955 11.3262C21.2972 11.6036 21.2498 11.8206 21.2498 12.0001C21.2498 12.1795 21.2972 12.3965 21.3955 12.674C21.466 12.8728 21.5467 13.0623 21.6369 13.2741C21.6772 13.3688 21.7196 13.4684 21.7637 13.5748C22.01 14.17 22.3528 15.0552 22.0068 15.9346C21.9591 16.0557 21.9094 16.1757 21.8575 16.2946C21.4799 17.1602 20.6119 17.5437 20.017 17.7904C19.9108 17.8344 19.8109 17.8746 19.7156 17.913C19.502 17.9991 19.3103 18.0763 19.12 18.1671C18.8543 18.2937 18.6674 18.4137 18.5405 18.5405C18.4137 18.6674 18.2938 18.8543 18.1671 19.12C18.0763 19.3103 17.9993 19.5014 17.9133 19.7149C17.8749 19.8104 17.8345 19.9106 17.7904 20.017C17.5437 20.612 17.1603 21.48 16.2946 21.8576C16.1757 21.9095 16.0556 21.9593 15.9344 22.007C15.055 22.353 14.1697 22.0103 13.5745 21.7639C13.4681 21.7198 13.3688 21.6776 13.2741 21.6372C13.0623 21.547 12.8725 21.4662 12.6737 21.3958C12.3963 21.2975 12.1793 21.2501 11.9998 21.2501C11.8204 21.2501 11.6034 21.2975 11.3259 21.3958C11.1272 21.4662 10.9377 21.5469 10.726 21.637C10.6312 21.6774 10.5317 21.7198 10.4251 21.7639C9.82992 22.0103 8.94468 22.3531 8.06527 22.007C7.94407 21.9593 7.82395 21.9095 7.70496 21.8576C6.83932 21.48 6.45589 20.6121 6.2092 20.0171C6.1651 19.9108 6.12484 19.8108 6.08637 19.7153C6.00034 19.5018 5.92332 19.3106 5.83253 19.1202C5.70585 18.8546 5.58595 18.6677 5.45907 18.5408C5.33219 18.4139 5.1453 18.294 4.87968 18.1673C4.68936 18.0766 4.49822 17.9996 4.28472 17.9136C4.1894 17.8752 4.08889 17.8347 3.98273 17.7907C3.38781 17.544 2.5199 17.1605 2.14226 16.2949C2.09035 16.1759 2.04054 16.0558 1.99286 15.9346C1.64683 15.0552 1.98962 14.17 2.23597 13.5748C2.28005 13.4683 2.32231 13.369 2.36268 13.2742C2.45287 13.0625 2.53366 12.8727 2.6041 12.674C2.70242 12.3965 2.74981 12.1795 2.74981 12.0001C2.74981 11.8206 2.70242 11.6036 2.6041 11.3261C2.53366 11.1274 2.45292 10.9378 2.36274 10.726C2.32235 10.6312 2.28007 10.5319 2.23597 10.4254C1.98962 9.83014 1.64683 8.9449 1.99286 8.06549C2.04058 7.9442 2.09044 7.824 2.1424 7.70492C2.52005 6.83933 3.38791 6.45591 3.98281 6.20922C4.08913 6.16513 4.18906 6.12487 4.28452 6.08642C4.49808 6.00039 4.68935 5.92334 4.87971 5.83255C5.14532 5.70588 5.3322 5.58598 5.45907 5.4591C5.58595 5.33222 5.70585 5.14535 5.83253 4.87974C5.92331 4.6894 6.00033 4.49823 6.08636 4.28468C6.12482 4.1892 6.1651 4.08922 6.20921 3.98286C6.45591 3.38798 6.83935 2.52015 7.70494 2.14253C7.82393 2.09062 7.94404 2.04079 8.06524 1.99311C8.94465 1.64708 9.82989 1.98987 10.4251 2.23622C10.5316 2.28032 10.6309 2.3226 10.7258 2.36298C10.9375 2.45317 11.1271 2.53391 11.3259 2.60434C11.6034 2.70267 11.8203 2.75006 11.9998 2.75006C12.1793 2.75006 12.3962 2.70267 12.6737 2.60434C12.8725 2.53391 13.0621 2.45317 13.2738 2.36298C13.3687 2.3226 13.468 2.28031 13.5745 2.23621ZM9.23867 10.3578C9.54779 10.6669 10.049 10.6669 10.3581 10.3578C10.6672 10.0487 10.6672 9.54754 10.3581 9.23843C10.049 8.92931 9.54779 8.92931 9.23867 9.23843C8.92956 9.54754 8.92956 10.0487 9.23867 10.3578ZM13.6416 14.7608C13.9508 15.0699 14.4519 15.0699 14.7611 14.7608C15.0702 14.4516 15.0702 13.9505 14.7611 13.6414C14.4519 13.3322 13.9508 13.3322 13.6416 13.6414C13.3325 13.9505 13.3325 14.4516 13.6416 14.7608ZM14.769 9.23032C15.0619 9.52321 15.0619 9.99809 14.769 10.291L10.2914 14.7686C9.99849 15.0615 9.52362 15.0615 9.23073 14.7686C8.93783 14.4757 8.93783 14.0008 9.23073 13.7079L13.7083 9.23032C14.0012 8.93743 14.4761 8.93743 14.769 9.23032Z" fill="#006CC0"/>
<g id="Subtract_2">
<path d="M9.23867 10.3578C9.54779 10.6669 10.049 10.6669 10.3581 10.3578C10.6672 10.0487 10.6672 9.54754 10.3581 9.23843C10.049 8.92931 9.54779 8.92931 9.23867 9.23843C8.92956 9.54754 8.92956 10.0487 9.23867 10.3578Z" fill="#006CC0"/>
<path d="M13.6416 14.7608C13.9508 15.0699 14.4519 15.0699 14.7611 14.7608C15.0702 14.4516 15.0702 13.9505 14.7611 13.6414C14.4519 13.3322 13.9508 13.3322 13.6416 13.6414C13.3325 13.9505 13.3325 14.4516 13.6416 14.7608Z" fill="#006CC0"/>
<path d="M14.769 9.23032C15.0619 9.52321 15.0619 9.99809 14.769 10.291L10.2914 14.7686C9.99849 15.0615 9.52362 15.0615 9.23073 14.7686C8.93783 14.4757 8.93783 14.0008 9.23073 13.7079L13.7083 9.23032C14.0012 8.93743 14.4761 8.93743 14.769 9.23032Z" fill="#006CC0"/>
</g>
</g>
</g>
</svg>
