<svg width="10" height="11" viewBox="0 0 10 11" fill="none" xmlns="http://www.w3.org/2000/svg">
<g id="Trash can">
<path id="Subtract" fill-rule="evenodd" clip-rule="evenodd" d="M2.20884 1.625C1.19573 1.625 0.617427 2.7816 1.22529 3.59209C1.48473 3.93801 1.62497 4.35874 1.62497 4.79114V8C1.62497 9.31168 2.6883 10.375 3.99997 10.375H5.99997C7.31165 10.375 8.37497 9.31168 8.37497 8V4.79114C8.37497 4.35874 8.51522 3.93801 8.77466 3.59209C9.38252 2.7816 8.80422 1.625 7.79111 1.625H2.20884ZM5.99991 4.125C6.20702 4.125 6.37491 4.29289 6.37491 4.5V7.5C6.37491 7.70711 6.20702 7.875 5.99991 7.875C5.7928 7.875 5.62491 7.70711 5.62491 7.5V4.5C5.62491 4.29289 5.7928 4.125 5.99991 4.125ZM4.37491 4.5C4.37491 4.29289 4.20702 4.125 3.99991 4.125C3.7928 4.125 3.62491 4.29289 3.62491 4.5L3.62491 7.5C3.62491 7.70711 3.7928 7.875 3.99991 7.875C4.20702 7.875 4.37491 7.70711 4.37491 7.5L4.37491 4.5Z" fill="white"/>
<path id="Rectangle 4" d="M7 2L6.72792 1.18377C6.59181 0.77543 6.20967 0.5 5.77924 0.5H4.22076C3.79033 0.5 3.40819 0.77543 3.27208 1.18377L3 2" stroke="white" stroke-width="0.75" stroke-linecap="round"/>
</g>
</svg>
