<svg width="20" height="20" viewBox="0 0 20 20" fill="none" xmlns="http://www.w3.org/2000/svg">
<g id="Iconex/Filled/Image">
<g id="Image">
<g id="Image_2">
<path id="Rectangle 74 (Stroke)" fill-rule="evenodd" clip-rule="evenodd" d="M1.04175 5.83317C1.04175 3.18681 3.18705 1.0415 5.83341 1.0415H14.1667C16.8131 1.0415 18.9584 3.18681 18.9584 5.83317V14.1665C18.9584 16.8129 16.8131 18.9582 14.1667 18.9582H5.83341C3.18705 18.9582 1.04175 16.8129 1.04175 14.1665V5.83317ZM5.83341 2.2915C3.87741 2.2915 2.29175 3.87716 2.29175 5.83317V14.1665C2.29175 16.1225 3.87741 17.7082 5.83341 17.7082H14.1667C16.1228 17.7082 17.7084 16.1225 17.7084 14.1665V5.83317C17.7084 3.87716 16.1228 2.2915 14.1667 2.2915H5.83341Z" fill="#1F1F39"/>
</g>
<path id="Subtract" fill-rule="evenodd" clip-rule="evenodd" d="M1.66675 5.83317C1.66675 3.53198 3.53223 1.6665 5.83341 1.6665H14.1667C16.4679 1.6665 18.3334 3.53198 18.3334 5.83317V14.1665C18.3334 14.7727 18.204 15.3486 17.9712 15.8682L18.2676 13.7937C18.3084 13.5075 18.1981 13.2207 17.9761 13.0356L14.3857 10.0436C13.7897 9.54695 12.9133 9.5867 12.3647 10.1353L8.20711 14.2929C7.81658 14.6834 7.18342 14.6834 6.79289 14.2929L5.89851 13.3985C5.38002 12.88 4.56267 12.8124 3.966 13.2386L2.4323 14.3341C2.2133 14.4905 2.08333 14.7431 2.08333 15.0122V15.8495C2.08333 15.9076 2.08941 15.9651 2.10116 16.021C1.82312 15.4625 1.66675 14.8328 1.66675 14.1665V5.83317ZM16.0316 17.758L17.6367 16.474C16.8899 17.5948 15.6145 18.3332 14.1667 18.3332H5.83341C4.3843 18.3332 3.10796 17.5934 2.36145 16.4709C2.3727 16.481 2.38424 16.4907 2.39609 16.5002L3.96097 17.7521C4.09484 17.8592 4.25847 17.9224 4.42957 17.9331L10.7727 18.3295C10.8131 18.3321 10.8536 18.3316 10.8939 18.3283L15.5803 17.9378C15.7452 17.924 15.9024 17.8614 16.0316 17.758ZM6.66667 8.33333C5.74619 8.33333 5 7.58714 5 6.66667C5 5.74619 5.74619 5 6.66667 5C7.58714 5 8.33333 5.74619 8.33333 6.66667C8.33333 7.58714 7.58714 8.33333 6.66667 8.33333Z" fill="#1F1F39"/>
</g>
</g>
</svg>
