<svg width="20" height="20" viewBox="0 0 20 20" fill="none" xmlns="http://www.w3.org/2000/svg">
<g id="Iconex/Filled/Home">
<g id="Home">
<path id="Rectangle 74" d="M2.08334 9.11534C2.08334 8.09519 2.55049 7.1312 3.3512 6.49906L7.93453 2.88064C9.14556 1.92457 10.8545 1.92457 12.0655 2.88064L16.6488 6.49906C17.4495 7.1312 17.9167 8.09518 17.9167 9.11534V14.5833C17.9167 16.4243 16.4243 17.9167 14.5833 17.9167H13.3333C12.8731 17.9167 12.5 17.5436 12.5 17.0833V14.5833C12.5 13.6629 11.7538 12.9167 10.8333 12.9167H9.16668C8.2462 12.9167 7.50001 13.6629 7.50001 14.5833V17.0833C7.50001 17.5436 7.12691 17.9167 6.66668 17.9167H5.41668C3.57573 17.9167 2.08334 16.4243 2.08334 14.5833L2.08334 9.11534Z" fill="#F23E14" stroke="#F23E14" stroke-width="1.25"/>
</g>
</g>
</svg>
