<svg width="20" height="20" viewBox="0 0 20 20" fill="none" xmlns="http://www.w3.org/2000/svg">
<path fill-rule="evenodd" clip-rule="evenodd" d="M10 1.04169C5.05247 1.04169 1.04169 5.05247 1.04169 10C1.04169 14.9476 5.05247 18.9584 10 18.9584C14.9476 18.9584 18.9584 14.9476 18.9584 10C18.9584 5.05247 14.9476 1.04169 10 1.04169ZM13.1248 10C13.1248 10.3452 12.845 10.625 12.4998 10.625H10.6248V12.5C10.6248 12.8452 10.345 13.125 9.99982 13.125C9.65464 13.125 9.37482 12.8452 9.37482 12.5V10.625H7.49982C7.15464 10.625 6.87482 10.3452 6.87482 10C6.87482 9.65484 7.15464 9.37502 7.49982 9.37502H9.37482V7.50002C9.37482 7.15484 9.65464 6.87502 9.99982 6.87502C10.345 6.87502 10.6248 7.15484 10.6248 7.50002V9.37502H12.4998C12.845 9.37502 13.1248 9.65484 13.1248 10Z" fill="#F23E14"/>
</svg>
