<svg width="20" height="20" viewBox="0 0 20 20" fill="none" xmlns="http://www.w3.org/2000/svg">
<g id="Iconex/Filled/Basketball">
<g id="Basketball">
<path id="Subtract" fill-rule="evenodd" clip-rule="evenodd" d="M1.68976 9.37519C1.99406 5.27107 5.27088 1.99425 9.37501 1.68994V9.37519H7.26938C7.11091 7.16115 6.11714 5.17429 4.59972 3.71619L3.73363 4.61752C5.01776 5.85145 5.86009 7.51862 6.01561 9.37519H1.68976ZM1.68976 10.6252C1.99406 14.7293 5.27088 18.0061 9.37501 18.3104V10.6252H7.26938C7.11091 12.8392 6.11714 14.8261 4.59972 16.2842L3.73363 15.3829C5.01776 14.1489 5.86009 12.4818 6.01561 10.6252H1.68976ZM10.625 10.6252V18.3104C12.4268 18.1768 14.0691 17.4703 15.3704 16.3725C13.8661 14.886 12.8846 12.8689 12.7298 10.6252H10.625ZM13.9833 10.6252C14.1359 12.5278 14.9791 14.235 16.2632 15.4973C17.4233 14.1766 18.1723 12.4859 18.3103 10.6252H13.9833ZM18.3103 9.37519H13.9833C14.1358 7.47246 14.9788 5.76524 16.263 4.50279C17.4232 5.82353 18.1723 7.51432 18.3103 9.37519ZM12.7298 9.37519H10.625V1.68994C12.4266 1.82353 14.0689 2.52993 15.3702 3.62768C13.8658 5.11425 12.8845 7.13141 12.7298 9.37519ZM15.84 4.05553L16.0603 4.28025C15.9883 4.20397 15.9148 4.12905 15.84 4.05553ZM16.0727 15.7069L15.827 15.9576C15.9107 15.8757 15.9926 15.7922 16.0727 15.7069Z" fill="#A0A3BD"/>
</g>
</g>
</svg>
