<svg width="22" height="22" viewBox="0 0 22 22" fill="none" xmlns="http://www.w3.org/2000/svg">
<g id="Check">
<path id="Subtract" fill-rule="evenodd" clip-rule="evenodd" d="M0.25 6C0.25 2.82436 2.82436 0.25 6 0.25H16C19.1756 0.25 21.75 2.82436 21.75 6V16C21.75 19.1756 19.1756 21.75 16 21.75H6C2.82436 21.75 0.25 19.1756 0.25 16V6ZM7.96967 11.0303L9.96967 13.0303C10.2626 13.3232 10.7374 13.3232 11.0303 13.0303L15.0303 9.03033C15.3232 8.73744 15.3232 8.26256 15.0303 7.96967C14.7374 7.67678 14.2626 7.67678 13.9697 7.96967L10.5 11.4393L9.03033 9.96967C8.73744 9.67678 8.26256 9.67678 7.96967 9.96967C7.67678 10.2626 7.67678 10.7374 7.96967 11.0303Z" fill="#1F1F39"/>
</g>
</svg>
