<svg width="40" height="24" viewBox="0 0 40 24" fill="none" xmlns="http://www.w3.org/2000/svg">
<g id="Group 1000003768">
<rect id="Rectangle 887" width="40" height="24" rx="8" fill="#2E326F"/>
<g id="Group 610">
<path id="Vector" d="M21.9257 4.8313H18.2256V11.4942H21.9257V4.8313Z" fill="#FF5F00"/>
<path id="Vector_2" d="M18.4605 8.16269C18.4599 7.52101 18.605 6.8876 18.8848 6.31042C19.1647 5.73324 19.5719 5.22742 20.0756 4.83125C19.4518 4.33991 18.7026 4.03434 17.9137 3.94949C17.1247 3.86464 16.3279 4.00392 15.6142 4.35142C14.9005 4.69892 14.2988 5.24061 13.8779 5.91458C13.4569 6.58855 13.2336 7.3676 13.2336 8.16269C13.2336 8.95779 13.4569 9.73684 13.8779 10.4108C14.2988 11.0848 14.9005 11.6265 15.6142 11.974C16.3279 12.3215 17.1247 12.4607 17.9137 12.3759C18.7026 12.291 19.4518 11.9855 20.0756 11.4941C19.5719 11.098 19.1647 10.5921 18.8849 10.015C18.605 9.43778 18.4599 8.80438 18.4605 8.16269Z" fill="#EB001B"/>
<path id="Vector_3" d="M26.9182 8.1627C26.9182 8.95778 26.695 9.73683 26.2741 10.4108C25.8531 11.0848 25.2514 11.6265 24.5378 11.974C23.8241 12.3215 23.0273 12.4608 22.2383 12.3759C21.4494 12.2911 20.7002 11.9855 20.0764 11.4941C20.5797 11.0976 20.9866 10.5917 21.2664 10.0146C21.5462 9.43749 21.6915 8.80428 21.6915 8.1627C21.6915 7.52112 21.5462 6.88791 21.2664 6.31082C20.9866 5.73373 20.5797 5.22783 20.0764 4.83125C20.7002 4.33991 21.4494 4.03434 22.2383 3.94949C23.0273 3.86464 23.8241 4.00393 24.5378 4.35143C25.2514 4.69893 25.8531 5.24063 26.2741 5.9146C26.695 6.58857 26.9182 7.36761 26.9182 8.1627Z" fill="#F79E1B"/>
</g>
<path id="Vector_4" d="M9.12714 19.9131V18.34C9.12714 17.7475 8.71613 17.349 8.05394 17.3437C7.8653 17.3324 7.67681 17.3678 7.50813 17.4462C7.33945 17.5246 7.19675 17.6431 7.0949 17.7894C7.00209 17.6475 6.86932 17.5312 6.71058 17.4527C6.55185 17.3743 6.37302 17.3366 6.19294 17.3437C6.03597 17.3365 5.87966 17.367 5.73949 17.4323C5.59932 17.4976 5.48014 17.5954 5.39377 17.716V17.4066H4.80005V19.9131H5.39945V18.5235C5.39945 18.0883 5.66206 17.8576 6.06735 17.8576C6.46123 17.8576 6.66106 18.0935 6.66106 18.5183V19.9131H7.26046V18.5235C7.26046 18.0883 7.53447 17.8576 7.92835 17.8576C8.33364 17.8576 8.52774 18.0935 8.52774 18.5183V19.9131H9.12714ZM17.9982 17.4066H17.0278V16.6463H16.4284V17.4066H15.8747V17.9048H16.4284V19.0479C16.4284 19.6299 16.6739 19.976 17.376 19.976C17.6383 19.9767 17.8955 19.9095 18.1181 19.782L17.9469 19.3153C17.7877 19.4025 17.607 19.4512 17.4217 19.4569C17.1248 19.4569 17.0278 19.289 17.0278 19.0374V17.9048H17.9982V17.4066ZM23.0617 17.3437C22.917 17.3398 22.7738 17.3718 22.6472 17.4364C22.5206 17.501 22.4153 17.5958 22.3425 17.7108V17.4066H21.7545V19.9131H22.3481V18.5078C22.3481 18.0935 22.5423 17.8628 22.9305 17.8628C23.0575 17.8612 23.1835 17.8826 23.3015 17.9258L23.4842 17.4119C23.3486 17.3673 23.2057 17.3442 23.0617 17.3437ZM15.4066 17.6059C15.0705 17.4224 14.6841 17.3313 14.2934 17.3437C13.6026 17.3437 13.1574 17.6478 13.1574 18.146C13.1574 18.555 13.4885 18.8067 14.0993 18.8853L14.379 18.922C14.7044 18.9639 14.8585 19.0426 14.8585 19.1842C14.8585 19.3782 14.6416 19.4883 14.2363 19.4883C13.9103 19.4969 13.5906 19.4046 13.3286 19.2262L13.0489 19.6508C13.3947 19.8727 13.8089 19.9867 14.2306 19.976C15.0183 19.976 15.475 19.6351 15.475 19.158C15.475 18.7175 15.1154 18.4868 14.5217 18.4081L14.242 18.3714C13.9851 18.34 13.7796 18.2928 13.7796 18.125C13.7796 17.9415 13.9737 17.8314 14.2991 17.8314C14.5979 17.8355 14.8906 17.9095 15.1497 18.0464L15.4066 17.6059ZM31.3106 17.3437C31.1659 17.3398 31.0227 17.3718 30.8961 17.4364C30.7695 17.501 30.6642 17.5958 30.5914 17.7108V17.4066H30.0034V19.9131H30.597V18.5078C30.597 18.0935 30.7911 17.8628 31.1793 17.8628C31.3063 17.8612 31.4324 17.8826 31.5504 17.9258L31.7331 17.4119C31.5975 17.3673 31.4546 17.3442 31.3106 17.3437ZM23.6611 18.6598C23.6611 19.4202 24.2377 19.976 25.1169 19.976C25.4733 19.9924 25.8235 19.8858 26.0987 19.6771L25.8133 19.2366C25.608 19.3803 25.3578 19.4594 25.0997 19.4621C24.6259 19.4569 24.2777 19.1422 24.2777 18.6598C24.2777 18.1775 24.6259 17.8628 25.0997 17.8576C25.3578 17.8603 25.608 17.9394 25.8133 18.0831L26.0987 17.6426C25.8235 17.4339 25.4733 17.3273 25.1169 17.3437C24.2377 17.3437 23.6611 17.8995 23.6611 18.6598ZM29.2213 18.6598V17.4066H28.6276V17.7108C28.5263 17.5908 28.3951 17.4949 28.2452 17.431C28.0952 17.3672 27.9307 17.3372 27.7656 17.3437C27.0007 17.3437 26.4013 17.8943 26.4013 18.6598C26.4013 19.4254 27.0007 19.976 27.7656 19.976C27.9307 19.9825 28.0952 19.9525 28.2452 19.8887C28.3951 19.8248 28.5263 19.7289 28.6276 19.6089V19.9131H29.2213V18.6598ZM27.012 18.6598C27.012 18.2194 27.326 17.8576 27.8398 17.8576C28.3307 17.8576 28.6618 18.2036 28.6618 18.6598C28.6618 19.116 28.3307 19.4621 27.8398 19.4621C27.326 19.4621 27.012 19.1003 27.012 18.6598ZM19.8478 17.3437C19.0486 17.3437 18.4892 17.8785 18.4892 18.6598C18.4892 19.4569 19.0715 19.976 19.8878 19.976C20.2951 19.9891 20.6934 19.864 21.0067 19.6247L20.7155 19.2209C20.4901 19.3868 20.2109 19.4791 19.922 19.4831C19.5395 19.4831 19.1913 19.3205 19.1057 18.8696H21.1323C21.138 18.8014 21.1437 18.7333 21.1437 18.6598C21.138 17.8785 20.6128 17.3437 19.8478 17.3437ZM19.8364 17.8314C20.2189 17.8314 20.4644 18.0516 20.5272 18.4396H19.1114C19.1742 18.0778 19.4139 17.8314 19.8364 17.8314ZM34.7301 18.6598V16.3999H34.1363V17.7108C34.035 17.5908 33.9039 17.4949 33.7539 17.431C33.604 17.3672 33.4395 17.3372 33.2744 17.3437C32.5094 17.3437 31.91 17.8943 31.91 18.6598C31.91 19.4254 32.5094 19.976 33.2744 19.976C33.4395 19.9825 33.604 19.9525 33.7539 19.8887C33.9039 19.8248 34.035 19.7289 34.1363 19.6089V19.9131H34.7301V18.6598ZM35.4239 19.6818C35.4474 19.6816 35.4708 19.6859 35.4925 19.6942C35.5133 19.7022 35.5323 19.7138 35.5485 19.7283C35.5645 19.7429 35.5773 19.7601 35.5862 19.779C35.5954 19.7985 35.6 19.8195 35.6 19.8407C35.6 19.8619 35.5954 19.8829 35.5862 19.9024C35.5773 19.9213 35.5645 19.9385 35.5485 19.9529C35.5323 19.9674 35.5133 19.9791 35.4925 19.9872C35.4708 19.9957 35.4475 20 35.4239 19.9999C35.3892 20.0002 35.3552 19.9911 35.3261 19.9738C35.297 19.9565 35.2741 19.9316 35.2603 19.9024C35.2512 19.8829 35.2465 19.8619 35.2465 19.8407C35.2465 19.8195 35.2512 19.7985 35.2603 19.779C35.2782 19.7405 35.3119 19.7101 35.3541 19.6942C35.3762 19.6858 35.4 19.6816 35.4239 19.6818ZM35.4239 19.9648C35.4419 19.9649 35.4596 19.9616 35.4761 19.9551C35.4919 19.9487 35.5063 19.9397 35.5185 19.9285C35.5437 19.9052 35.5578 19.8737 35.5578 19.8408C35.5578 19.808 35.5437 19.7764 35.5185 19.7531C35.5064 19.7419 35.492 19.733 35.4761 19.7268C35.4596 19.7203 35.4418 19.7171 35.4239 19.7172C35.4056 19.7171 35.3875 19.7204 35.3706 19.7268C35.3503 19.7347 35.3324 19.7471 35.3185 19.7629C35.3046 19.7786 35.2951 19.7973 35.2909 19.8172C35.2866 19.8371 35.2878 19.8576 35.2941 19.877C35.3005 19.8965 35.312 19.9141 35.3276 19.9285C35.3399 19.9398 35.3545 19.9488 35.3706 19.9551C35.3875 19.9616 35.4056 19.9649 35.4239 19.9648ZM35.4341 19.7664C35.4511 19.7653 35.468 19.7698 35.4819 19.779C35.4874 19.7832 35.4918 19.7885 35.4947 19.7945C35.4976 19.8005 35.4989 19.807 35.4986 19.8135C35.4988 19.8191 35.4977 19.8247 35.4954 19.8299C35.4931 19.8351 35.4897 19.8398 35.4852 19.8437C35.4747 19.8523 35.4613 19.8575 35.4472 19.8584L35.4999 19.9141H35.4587L35.4099 19.8587H35.3942V19.9141H35.3598V19.7664H35.4341ZM35.3942 19.794V19.8334H35.4337C35.4413 19.8338 35.4488 19.8321 35.4553 19.8285C35.458 19.8269 35.4601 19.8247 35.4615 19.822C35.463 19.8194 35.4636 19.8165 35.4634 19.8135C35.4636 19.8107 35.4629 19.8078 35.4615 19.8052C35.4601 19.8027 35.4579 19.8005 35.4553 19.7989C35.4488 19.7954 35.4413 19.7937 35.4337 19.794H35.3942ZM32.5208 18.6598C32.5208 18.2194 32.8348 17.8576 33.3486 17.8576C33.8395 17.8576 34.1706 18.2036 34.1706 18.6598C34.1706 19.116 33.8395 19.4621 33.3486 19.4621C32.8348 19.4621 32.5208 19.1003 32.5208 18.6598ZM12.4724 18.6598V17.4066H11.8787V17.7108C11.7773 17.5908 11.6462 17.4949 11.4962 17.431C11.3462 17.3672 11.1818 17.3372 11.0167 17.3437C10.2517 17.3437 9.65234 17.8943 9.65234 18.6598C9.65234 19.4254 10.2517 19.976 11.0167 19.976C11.1818 19.9825 11.3462 19.9525 11.4962 19.8887C11.6462 19.8248 11.7773 19.7289 11.8787 19.6089V19.9131H12.4724V18.6598ZM10.2632 18.6598C10.2632 18.2194 10.5771 17.8576 11.0909 17.8576C11.5818 17.8576 11.9129 18.2036 11.9129 18.6598C11.9129 19.116 11.5818 19.4621 11.0909 19.4621C10.5771 19.4621 10.2632 19.1003 10.2632 18.6598Z" fill="white"/>
</g>
</svg>
