<svg width="20" height="20" viewBox="0 0 20 20" fill="none" xmlns="http://www.w3.org/2000/svg">
<g id="Iconex/Filled/Key">
<g id="Key">
<path id="Subtract" fill-rule="evenodd" clip-rule="evenodd" d="M5.83334 1.04175C3.18697 1.04175 1.04167 3.18705 1.04167 5.83341V14.1667C1.04167 16.8131 3.18697 18.9584 5.83334 18.9584H14.1667C16.813 18.9584 18.9583 16.8131 18.9583 14.1667V5.83341C18.9583 3.18705 16.813 1.04175 14.1667 1.04175H5.83334ZM9.28873 9.79167C9.01668 8.82979 8.13231 8.125 7.08333 8.125C5.81768 8.125 4.79166 9.15101 4.79166 10.4167C4.79166 11.6823 5.81768 12.7083 7.08333 12.7083C8.13231 12.7083 9.01668 12.0035 9.28873 11.0417L12.4991 11.0417L12.5 11.0417L12.5009 11.0417H14.5822H14.5833C14.9272 11.0417 15.2061 10.764 15.2083 10.4207L15.2083 10.4167V8.75C15.2083 8.40482 14.9285 8.125 14.5833 8.125C14.2382 8.125 13.9583 8.40482 13.9583 8.75V9.79167H13.125L13.125 8.75C13.125 8.40482 12.8452 8.125 12.5 8.125C12.1548 8.125 11.875 8.40482 11.875 8.75L11.875 9.79167L9.28873 9.79167ZM8.12499 10.4167C8.12499 9.84137 7.65862 9.375 7.08333 9.375C6.50803 9.375 6.04166 9.84137 6.04166 10.4167C6.04166 10.992 6.50803 11.4583 7.08333 11.4583C7.65862 11.4583 8.12499 10.992 8.12499 10.4167Z" fill="#A0A3BD"/>
</g>
</g>
</svg>
