<svg width="20" height="20" viewBox="0 0 20 20" fill="none" xmlns="http://www.w3.org/2000/svg">
<g id="vuesax/bold/refresh-square-2">
<g id="vuesax/bold/refresh-square-2_2">
<g id="refresh-square-2">
<path id="Vector" d="M13.4917 1.66675H6.50834C3.475 1.66675 1.66667 3.47508 1.66667 6.50841V13.4834C1.66667 16.5251 3.475 18.3334 6.50834 18.3334H13.4833C16.5167 18.3334 18.325 16.5251 18.325 13.4917V6.50841C18.3333 3.47508 16.525 1.66675 13.4917 1.66675ZM4.37501 9.90841C4.40001 8.44175 4.98334 7.05841 6.01667 6.02508C7.08334 4.95841 8.5 4.37508 10 4.37508C11.5 4.37508 12.9167 4.95841 13.975 6.02508C14 6.05008 14.025 6.08341 14.05 6.11675V5.40008C14.05 5.05841 14.3333 4.77508 14.675 4.77508C15.0167 4.77508 15.3 5.05841 15.3 5.40008V7.60841C15.3 7.95008 15.0167 8.23341 14.675 8.23341H12.4667C12.125 8.23341 11.8417 7.95008 11.8417 7.60841C11.8417 7.26675 12.125 6.98341 12.4667 6.98341H13.1583C13.1333 6.95841 13.1167 6.93341 13.0917 6.90841C12.2667 6.08341 11.1667 5.62508 10 5.62508C8.83334 5.62508 7.73334 6.08341 6.90834 6.90841C6.10001 7.71675 5.65001 8.79175 5.63334 9.93341C5.62501 10.2667 5.34167 10.5417 5.00001 10.5417H4.99167C4.65 10.5417 4.37501 10.2501 4.37501 9.90841ZM13.975 13.9751C12.9167 15.0334 11.5 15.6251 10 15.6251C8.5 15.6251 7.08334 15.0417 6.025 13.9751C6 13.9501 5.975 13.9167 5.95001 13.8834V14.5917C5.95001 14.9334 5.66667 15.2167 5.325 15.2167C4.98334 15.2167 4.7 14.9334 4.7 14.5917V12.3834C4.7 12.0417 4.98334 11.7584 5.325 11.7584H7.53334C7.875 11.7584 8.15834 12.0417 8.15834 12.3834C8.15834 12.7251 7.875 13.0084 7.53334 13.0084H6.84167C6.86667 13.0334 6.88334 13.0584 6.90834 13.0834C7.73334 13.9084 8.83334 14.3667 10 14.3667C11.1667 14.3667 12.2667 13.9084 13.0917 13.0834C13.9083 12.2667 14.3667 11.1751 14.3667 10.0084C14.3667 9.66675 14.65 9.38341 14.9917 9.38341C15.3333 9.38341 15.6167 9.66675 15.6167 10.0084C15.6167 11.5167 15.0333 12.9251 13.975 13.9751Z" fill="#A0A3BD"/>
</g>
</g>
</g>
</svg>
