<svg width="20" height="20" viewBox="0 0 20 20" fill="none" xmlns="http://www.w3.org/2000/svg">
<g id="Iconex/Filled/Bag 2">
<g id="Bag 2">
<path id="Exclude" fill-rule="evenodd" clip-rule="evenodd" d="M7.08506 5.20841C5.10114 5.20841 3.42366 6.67707 3.16145 8.6436L2.38368 14.4769C2.06728 16.8499 3.91333 18.9584 6.30729 18.9584H13.6927C16.0867 18.9584 17.9327 16.8499 17.6163 14.4769L16.8386 8.6436C16.5764 6.67708 14.8989 5.20841 12.915 5.20841H7.08506ZM6.04174 5.00008C6.04174 2.81396 7.81394 1.04175 10.0001 1.04175C12.1862 1.04175 13.9584 2.81395 13.9584 5.00008V7.50008C13.9584 7.84526 13.6786 8.12508 13.3334 8.12508C12.9882 8.12508 12.7084 7.84526 12.7084 7.50008V5.00008C12.7084 3.50431 11.4958 2.29175 10.0001 2.29175C8.5043 2.29175 7.29174 3.50431 7.29174 5.00008V7.50008C7.29174 7.84526 7.01192 8.12508 6.66674 8.12508C6.32156 8.12508 6.04174 7.84526 6.04174 7.50008V5.00008Z" fill="#A0A3BD"/>
</g>
</g>
</svg>
