<svg width="20" height="20" viewBox="0 0 20 20" fill="none" xmlns="http://www.w3.org/2000/svg">
<g id="Iconex/Filled/Location">
<g id="Location">
<path id="Subtract" fill-rule="evenodd" clip-rule="evenodd" d="M2.70833 8.68047C2.70833 4.6856 5.97911 1.45825 9.99999 1.45825C14.0209 1.45825 17.2917 4.6856 17.2917 8.68047C17.2917 11.1651 15.8427 13.6173 14.3071 15.4023C13.53 16.3056 12.7052 17.0682 11.9777 17.6106C11.6145 17.8813 11.2655 18.1048 10.9504 18.2635C10.655 18.4122 10.3177 18.5416 9.99999 18.5416C9.68229 18.5416 9.34498 18.4122 9.04961 18.2635C8.73453 18.1048 8.38546 17.8813 8.02228 17.6106C7.29476 17.0682 6.46996 16.3056 5.69286 15.4023C4.15726 13.6173 2.70833 11.1651 2.70833 8.68047ZM10 10.8333C8.61929 10.8333 7.5 9.71404 7.5 8.33333C7.5 6.95262 8.61929 5.83333 10 5.83333C11.3807 5.83333 12.5 6.95262 12.5 8.33333C12.5 9.71404 11.3807 10.8333 10 10.8333Z" fill="#A0A3BD"/>
</g>
</g>
</svg>
