<svg width="20" height="20" viewBox="0 0 20 20" fill="none" xmlns="http://www.w3.org/2000/svg">
<g id="vuesax/bold/logout">
<g id="vuesax/bold/logout_2">
<g id="logout">
<path id="Vector" d="M14 1.6665H11.8333C9.16667 1.6665 7.5 3.33317 7.5 5.99984V9.37484H12.7083C13.05 9.37484 13.3333 9.65817 13.3333 9.99984C13.3333 10.3415 13.05 10.6248 12.7083 10.6248H7.5V13.9998C7.5 16.6665 9.16667 18.3332 11.8333 18.3332H13.9917C16.6583 18.3332 18.325 16.6665 18.325 13.9998V5.99984C18.3333 3.33317 16.6667 1.6665 14 1.6665Z" fill="#A0A3BD"/>
<path id="Vector_2" d="M3.8 9.37503L5.525 7.65003C5.65 7.52503 5.70833 7.3667 5.70833 7.20837C5.70833 7.05003 5.65 6.88337 5.525 6.7667C5.28333 6.52503 4.88333 6.52503 4.64166 6.7667L1.85 9.55837C1.60833 9.80003 1.60833 10.2 1.85 10.4417L4.64166 13.2334C4.88333 13.475 5.28333 13.475 5.525 13.2334C5.76666 12.9917 5.76666 12.5917 5.525 12.35L3.8 10.625H7.5V9.37503H3.8Z" fill="#A0A3BD"/>
</g>
</g>
</g>
</svg>
