<svg width="20" height="20" viewBox="0 0 20 20" fill="none" xmlns="http://www.w3.org/2000/svg">
<g id="Iconex/Filled/Edit 1">
<path id="Union" fill-rule="evenodd" clip-rule="evenodd" d="M11.7035 3.61324C12.3539 2.96187 13.4088 2.96148 14.0597 3.61235L16.1362 5.68889C16.7815 6.33421 16.7882 7.37892 16.1512 8.03248L14.7679 9.45178L10.3175 5.00137L11.7035 3.61324ZM9.43429 5.88592L13.8954 10.347L8.45695 15.9269C7.9866 16.4094 7.3415 16.6816 6.66787 16.6815L4.37442 16.6814C3.66373 16.6814 3.09616 16.089 3.12605 15.3784L3.22451 13.0375C3.25085 12.4115 3.51103 11.8182 3.95359 11.3749L9.43429 5.88592ZM17.0957 17.246C17.4407 17.246 17.7204 16.966 17.7204 16.6207C17.7204 16.2754 17.4407 15.9955 17.0957 15.9955H11.9943C11.6492 15.9955 11.3695 16.2754 11.3695 16.6207C11.3695 16.966 11.6492 17.246 11.9943 17.246H17.0957Z" fill="#A0A3BD"/>
</g>
</svg>
