<svg width="20" height="20" viewBox="0 0 20 20" fill="none" xmlns="http://www.w3.org/2000/svg">
<path fill-rule="evenodd" clip-rule="evenodd" d="M10 1.0415C5.05247 1.0415 1.04169 5.05229 1.04169 9.99984C1.04169 14.9474 5.05247 18.9582 10 18.9582C14.9476 18.9582 18.9584 14.9474 18.9584 9.99984C18.9584 5.05229 14.9476 1.0415 10 1.0415ZM13.1249 10C13.1249 10.3452 12.8451 10.625 12.4999 10.625H10.6249V12.5C10.6249 12.8452 10.3451 13.125 9.9999 13.125C9.65472 13.125 9.3749 12.8452 9.3749 12.5V10.625H7.4999C7.15472 10.625 6.8749 10.3452 6.8749 10C6.8749 9.65482 7.15472 9.375 7.4999 9.375H9.3749V7.5C9.3749 7.15482 9.65472 6.875 9.9999 6.875C10.3451 6.875 10.6249 7.15482 10.6249 7.5V9.375H12.4999C12.8451 9.375 13.1249 9.65482 13.1249 10Z" fill="#F23E14"/>
</svg>
