<svg width="40" height="24" viewBox="0 0 40 24" fill="none" xmlns="http://www.w3.org/2000/svg">
<g id="Group 695">
<rect id="Rectangle 885" width="40" height="24" rx="8" fill="#003087"/>
<g id="Group 609">
<path id="Vector" d="M32.9223 8.53998L31.9661 14.5333C31.9625 14.5553 31.9638 14.5778 31.9698 14.5993C31.9759 14.6207 31.9866 14.6406 32.0012 14.6575C32.0158 14.6744 32.0339 14.6879 32.0542 14.6971C32.0746 14.7063 32.0967 14.7109 32.1191 14.7106H33.2508C33.2907 14.711 33.3294 14.6971 33.3599 14.6714C33.3905 14.6457 33.4107 14.6099 33.4171 14.5706L34.3734 8.57731C34.377 8.5553 34.3757 8.53278 34.3696 8.51132C34.3635 8.48986 34.3528 8.46998 34.3383 8.45308C34.3237 8.43618 34.3056 8.42267 34.2852 8.41349C34.2648 8.40431 34.2427 8.39968 34.2204 8.39993H33.0887C33.0486 8.39914 33.0097 8.41292 32.979 8.43869C32.9484 8.46446 32.9283 8.50046 32.9223 8.53998ZM31.7139 10.289H30.6401C30.6003 10.2886 30.5616 10.3025 30.5311 10.3281C30.5006 10.3538 30.4803 10.3895 30.474 10.4288L30.4385 10.6494C30.4385 10.6494 29.6045 9.74734 28.128 10.357C27.2809 10.706 26.8743 11.4271 26.7012 11.9554C26.7012 11.9554 26.1521 13.5611 27.3941 14.4448C27.3941 14.4448 28.5458 15.2948 29.8426 14.3925L29.8202 14.5333C29.815 14.5663 29.8209 14.6002 29.8368 14.6297C29.8527 14.6591 29.8779 14.6825 29.9084 14.6964C29.9287 14.7059 29.9508 14.7106 29.9732 14.7106H31.0477C31.0878 14.7114 31.1267 14.6977 31.1573 14.6719C31.188 14.6461 31.2081 14.6101 31.2141 14.5706L31.8676 10.4663C31.8713 10.4444 31.87 10.4218 31.8639 10.4004C31.8577 10.379 31.8469 10.3592 31.8321 10.3425C31.8176 10.3254 31.7994 10.3118 31.779 10.3025C31.7586 10.2932 31.7363 10.2885 31.7139 10.2887V10.289ZM30.1339 12.5572C30.092 12.844 29.9467 13.1056 29.7251 13.2931C29.5026 13.4813 29.2195 13.5828 28.9279 13.5791C28.8135 13.5805 28.6996 13.5639 28.5904 13.5302C28.1268 13.3827 27.8622 12.9419 27.9382 12.464C27.9805 12.1774 28.126 11.916 28.3475 11.7286C28.5698 11.5404 28.8527 11.4385 29.1443 11.4416C29.2587 11.4405 29.3725 11.4571 29.4818 11.4911C29.9482 11.6376 30.2116 12.0791 30.1351 12.5575H30.1339V12.5572ZM24.4002 12.6706C24.9825 12.6706 25.5457 12.4643 25.9881 12.0891C26.4295 11.7151 26.7218 11.1956 26.8118 10.6249C26.9999 9.43777 26.0634 8.4016 24.7358 8.4016H22.5971C22.5572 8.40122 22.5185 8.41514 22.488 8.44085C22.4575 8.46655 22.4373 8.50232 22.431 8.54164L21.4745 14.5349C21.4693 14.568 21.4751 14.6019 21.4911 14.6313C21.507 14.6608 21.5321 14.6842 21.5627 14.698C21.5832 14.7076 21.6051 14.7123 21.6275 14.7123H22.7599C22.7998 14.7127 22.8386 14.6988 22.869 14.6731C22.8995 14.6474 22.9198 14.6116 22.926 14.5723L23.2068 12.8123C23.2127 12.7728 23.2329 12.7367 23.2635 12.7109C23.2941 12.6851 23.3331 12.6713 23.3732 12.6721L24.4002 12.6706ZM25.3474 10.571C25.2776 11.0099 24.9348 11.333 24.2791 11.333H23.4409L23.6954 9.73688H24.5187C25.1965 9.73807 25.4172 10.1339 25.3474 10.5721V10.571Z" fill="white"/>
<path id="Vector_2" d="M20.1848 10.3908L18.8896 12.5556L18.2322 10.4067C18.222 10.3724 18.2008 10.3424 18.1719 10.3211C18.143 10.2999 18.108 10.2886 18.0721 10.289H16.9032C16.873 10.2886 16.8436 10.2991 16.8205 10.3186C16.7974 10.3381 16.7822 10.3652 16.7776 10.395C16.7748 10.4148 16.7768 10.435 16.7836 10.4538L17.9615 14.0735L16.8961 15.7792C16.887 15.7932 16.8809 15.809 16.8782 15.8254C16.8755 15.8419 16.8761 15.8587 16.8801 15.875C16.8842 15.8912 16.8914 15.9064 16.9016 15.9197C16.9117 15.933 16.9244 15.9441 16.939 15.9523C16.9585 15.9634 16.9806 15.9692 17.0031 15.9689H18.262C18.298 15.969 18.3333 15.9599 18.3647 15.9424C18.396 15.9249 18.4223 15.8997 18.441 15.8691L21.7312 10.4797C21.7431 10.4609 21.7496 10.4392 21.7501 10.417C21.7506 10.3948 21.7449 10.3729 21.7338 10.3537C21.7227 10.3344 21.7066 10.3184 21.6872 10.3074C21.6678 10.2964 21.6458 10.2908 21.6234 10.2911H20.365C20.3289 10.2908 20.2933 10.2998 20.2617 10.3173C20.2301 10.3347 20.2036 10.36 20.1848 10.3908ZM16.2406 10.289H15.1659C15.1259 10.2886 15.0871 10.3026 15.0566 10.3283C15.0261 10.3541 15.0058 10.3899 14.9995 10.4293L14.9647 10.6497C14.9647 10.6497 14.13 9.7476 12.6535 10.3572C11.8066 10.7063 11.3998 11.4274 11.2275 11.9557C11.2275 11.9557 10.6778 13.5613 11.9196 14.4451C11.9196 14.4451 13.0715 15.2951 14.3684 14.3928L14.346 14.5335C14.3407 14.5666 14.3465 14.6005 14.3624 14.63C14.3784 14.6594 14.4036 14.6829 14.4342 14.6967C14.4544 14.7062 14.4766 14.7109 14.499 14.7109H15.5735C15.6134 14.7112 15.652 14.6972 15.6825 14.6716C15.713 14.6459 15.7332 14.6102 15.7396 14.5709L16.3934 10.4666C16.3987 10.4335 16.393 10.3996 16.377 10.37C16.3611 10.3405 16.3358 10.317 16.3052 10.3033C16.2849 10.2939 16.2628 10.2891 16.2404 10.289H16.2406ZM14.6604 12.5577C14.6181 12.8441 14.4727 13.1054 14.2514 13.2927C14.029 13.4808 13.7461 13.5826 13.4546 13.5794C13.3404 13.5807 13.2267 13.5641 13.1175 13.5304C12.6542 13.383 12.3899 12.9422 12.4659 12.4641C12.5083 12.1768 12.6543 11.9149 12.8766 11.7275C13.0997 11.5392 13.3836 11.4378 13.6758 11.4419C13.7902 11.4407 13.9043 11.4574 14.0135 11.4914C14.4752 11.6378 14.7381 12.0791 14.6618 12.5577H14.6606H14.6604ZM8.92693 12.6709C9.50823 12.6706 10.0705 12.4642 10.5134 12.0886C10.9544 11.7147 11.2464 11.1954 11.3361 10.625C11.5244 9.43804 10.5877 8.40186 9.26062 8.40186H7.12169C7.08178 8.40146 7.04305 8.41535 7.01253 8.441C6.982 8.46665 6.96171 8.50237 6.95532 8.54167L6.00193 14.5333C5.99661 14.5664 6.00236 14.6004 6.0183 14.6299C6.03424 14.6594 6.05948 14.6829 6.09012 14.6967C6.11038 14.7059 6.13255 14.7109 6.15495 14.7109H7.28662C7.3266 14.7113 7.36539 14.6973 7.39593 14.6716C7.42646 14.6459 7.44671 14.61 7.45299 14.5706L7.73329 12.8107C7.73924 12.7712 7.75941 12.7352 7.79002 12.7094C7.82064 12.6837 7.8596 12.6699 7.89965 12.6707H8.92693V12.6709ZM9.87412 10.571C9.80428 11.0099 9.46178 11.333 8.80609 11.333H7.96782L8.2219 9.73691H9.04515C9.72325 9.73809 9.94372 10.1342 9.87412 10.5722V10.571Z" fill="white"/>
</g>
</g>
</svg>
