<svg width="20" height="20" viewBox="0 0 20 20" fill="none" xmlns="http://www.w3.org/2000/svg">
<g id="Iconex/Filled/Shield">
<g id="Shield">
<path id="Subtract" fill-rule="evenodd" clip-rule="evenodd" d="M3.76194 5.13223C3.49739 5.27921 3.33331 5.55806 3.33331 5.8607V9.72626C3.33331 12.7527 4.97408 15.5412 7.61962 17.0109L9.59528 18.1085C9.84696 18.2483 10.153 18.2483 10.4047 18.1085L12.3803 17.0109C15.0259 15.5412 16.6666 12.7526 16.6666 9.72626V5.8607C16.6666 5.55806 16.5026 5.27921 16.238 5.13223L10.4047 1.89149C10.153 1.75166 9.84696 1.75166 9.59528 1.89149L3.76194 5.13223ZM9.14137 12.1086C9.38545 12.3527 9.78117 12.3527 10.0253 12.1086L13.3586 8.77526C13.6027 8.53119 13.6027 8.13546 13.3586 7.89138C13.1145 7.6473 12.7188 7.6473 12.4747 7.89138L9.58331 10.7828L8.35859 9.55805C8.11451 9.31397 7.71878 9.31397 7.4747 9.55805C7.23063 9.80212 7.23063 10.1979 7.4747 10.4419L9.14137 12.1086Z" fill="#A0A3BD"/>
</g>
</g>
</svg>
