<svg width="20" height="20" viewBox="0 0 20 20" fill="none" xmlns="http://www.w3.org/2000/svg">
<path d="M13.4917 1.66675H6.50835C3.47502 1.66675 1.66669 3.47508 1.66669 6.50841V13.4834C1.66669 16.5251 3.47502 18.3334 6.50835 18.3334H13.4834C16.5167 18.3334 18.325 16.5251 18.325 13.4917V6.50841C18.3334 3.47508 16.525 1.66675 13.4917 1.66675ZM4.37502 9.90841C4.40002 8.44175 4.98335 7.05841 6.01669 6.02508C7.08335 4.95841 8.50002 4.37508 10 4.37508C11.5 4.37508 12.9167 4.95841 13.975 6.02508C14 6.05008 14.025 6.08341 14.05 6.11675V5.40008C14.05 5.05841 14.3334 4.77508 14.675 4.77508C15.0167 4.77508 15.3 5.05841 15.3 5.40008V7.60841C15.3 7.95008 15.0167 8.23341 14.675 8.23341H12.4667C12.125 8.23341 11.8417 7.95008 11.8417 7.60841C11.8417 7.26675 12.125 6.98341 12.4667 6.98341H13.1584C13.1334 6.95841 13.1167 6.93341 13.0917 6.90841C12.2667 6.08341 11.1667 5.62508 10 5.62508C8.83335 5.62508 7.73335 6.08341 6.90835 6.90841C6.10002 7.71675 5.65002 8.79175 5.63335 9.93341C5.62502 10.2667 5.34169 10.5417 5.00002 10.5417H4.99169C4.65002 10.5417 4.37502 10.2501 4.37502 9.90841ZM13.975 13.9751C12.9167 15.0334 11.5 15.6251 10 15.6251C8.50002 15.6251 7.08335 15.0417 6.02502 13.9751C6.00002 13.9501 5.97502 13.9167 5.95002 13.8834V14.5917C5.95002 14.9334 5.66669 15.2167 5.32502 15.2167C4.98335 15.2167 4.70002 14.9334 4.70002 14.5917V12.3834C4.70002 12.0417 4.98335 11.7584 5.32502 11.7584H7.53335C7.87502 11.7584 8.15835 12.0417 8.15835 12.3834C8.15835 12.7251 7.87502 13.0084 7.53335 13.0084H6.84169C6.86669 13.0334 6.88335 13.0584 6.90835 13.0834C7.73335 13.9084 8.83335 14.3667 10 14.3667C11.1667 14.3667 12.2667 13.9084 13.0917 13.0834C13.9084 12.2667 14.3667 11.1751 14.3667 10.0084C14.3667 9.66675 14.65 9.38341 14.9917 9.38341C15.3334 9.38341 15.6167 9.66675 15.6167 10.0084C15.6167 11.5167 15.0334 12.9251 13.975 13.9751Z" fill="white"/>
</svg>
