<svg width="32" height="32" viewBox="0 0 32 32" fill="none" xmlns="http://www.w3.org/2000/svg">
<g id="Iconex/Filled/Star">
<g id="Star">
<path id="Star 2" d="M14.9717 3.04172C15.4381 2.26673 16.5617 2.26673 17.0281 3.04172L20.5655 8.9196C20.733 9.19802 21.0063 9.39658 21.3229 9.4699L28.0062 11.0178C28.8874 11.2218 29.2346 12.2904 28.6416 12.9735L24.1445 18.1541C23.9315 18.3994 23.8271 18.7207 23.8552 19.0445L24.4484 25.879C24.5266 26.7801 23.6176 27.4405 22.7848 27.0877L16.468 24.4116C16.1688 24.2848 15.831 24.2848 15.5318 24.4116L9.21509 27.0877C8.38224 27.4405 7.47327 26.7801 7.55147 25.879L8.14462 19.0445C8.17271 18.7207 8.06832 18.3994 7.85531 18.1541L3.35822 12.9735C2.76528 12.2904 3.11248 11.2218 3.99366 11.0178L10.677 9.4699C10.9935 9.39658 11.2668 9.19802 11.4344 8.9196L14.9717 3.04172Z" fill="#D9DBE9" stroke="#D9DBE9" stroke-width="1.5"/>
</g>
</g>
</svg>
