<svg width="12" height="12" viewBox="0 0 12 12" fill="none" xmlns="http://www.w3.org/2000/svg">
<path d="M5.65728 1.06949C5.81274 0.81116 6.18726 0.811161 6.34272 1.06949L7.723 3.36303C7.77885 3.45584 7.86995 3.52202 7.97547 3.54646L10.5833 4.15044C10.877 4.21847 10.9927 4.57465 10.7951 4.80234L9.04034 6.8238C8.96934 6.9056 8.93454 7.01269 8.94391 7.1206L9.17535 9.78742C9.20142 10.0878 8.89843 10.3079 8.62081 10.1903L6.15604 9.1461C6.0563 9.10385 5.9437 9.10385 5.84396 9.1461L3.37919 10.1903C3.10157 10.3079 2.79858 10.0878 2.82465 9.78742L3.05609 7.1206C3.06546 7.01269 3.03066 6.9056 2.95966 6.8238L1.2049 4.80234C1.00725 4.57465 1.12299 4.21847 1.41671 4.15044L4.02453 3.54646C4.13005 3.52202 4.22115 3.45584 4.277 3.36303L5.65728 1.06949Z" fill="#FFBC1F" stroke="#FFBC1F" stroke-width="1.5"/>
</svg>
