<svg width="40" height="24" viewBox="0 0 40 24" fill="none" xmlns="http://www.w3.org/2000/svg">
<g id="Group 1000003770">
<rect id="Rectangle 885" width="40" height="24" rx="8" fill="#635BFF"/>
<g id="Group">
<path id="Vector" fill-rule="evenodd" clip-rule="evenodd" d="M35.764 11.8154C35.764 9.62861 34.7075 7.90308 32.6882 7.90308C30.6605 7.90308 29.4336 9.62861 29.4336 11.7983C29.4336 14.3696 30.882 15.668 32.9609 15.668C33.9748 15.668 34.7416 15.4373 35.3209 15.1127V13.4043C34.7416 13.6947 34.077 13.8741 33.2335 13.8741C32.4071 13.8741 31.6744 13.5837 31.5806 12.5757H35.7469C35.7469 12.4646 35.764 12.0204 35.764 11.8154ZM31.5551 11.0039C31.5551 10.0386 32.143 9.63715 32.6797 9.63715C33.1995 9.63715 33.7533 10.0386 33.7533 11.0039H31.5551Z" fill="white"/>
<path id="Vector_2" fill-rule="evenodd" clip-rule="evenodd" d="M26.1446 7.90308C25.3096 7.90308 24.7729 8.29602 24.4747 8.56937L24.3639 8.03975H22.4895V18L24.6195 17.5473L24.628 15.1298C24.9348 15.3519 25.3863 15.668 26.1361 15.668C27.6612 15.668 29.0499 14.4379 29.0499 11.73C29.0414 9.25275 27.6356 7.90308 26.1446 7.90308ZM25.6334 13.7887C25.1307 13.7887 24.8325 13.6093 24.628 13.3872L24.6195 10.218C24.841 9.9703 25.1478 9.79946 25.6334 9.79946C26.4087 9.79946 26.9455 10.6708 26.9455 11.7898C26.9455 12.9345 26.4172 13.7887 25.6334 13.7887Z" fill="white"/>
<path id="Vector_3" fill-rule="evenodd" clip-rule="evenodd" d="M19.5586 7.39897L21.6971 6.93769V5.20361L19.5586 5.65635V7.39897Z" fill="white"/>
<path id="Vector_4" d="M21.6971 8.0481H19.5586V15.5226H21.6971V8.0481Z" fill="white"/>
<path id="Vector_5" fill-rule="evenodd" clip-rule="evenodd" d="M17.2667 8.68038L17.1304 8.04826H15.29V15.5227H17.4201V10.4572C17.9227 9.79942 18.7747 9.91901 19.0389 10.013V8.04826C18.7662 7.94575 17.7694 7.75782 17.2667 8.68038Z" fill="white"/>
<path id="Vector_6" fill-rule="evenodd" clip-rule="evenodd" d="M13.0073 6.19458L10.9284 6.63878L10.9199 13.4811C10.9199 14.7454 11.8656 15.6765 13.1266 15.6765C13.8253 15.6765 14.3365 15.5484 14.6176 15.3946V13.6605C14.345 13.7716 12.9988 14.1645 12.9988 12.9003V9.86775H14.6176V8.04825H12.9988L13.0073 6.19458Z" fill="white"/>
<path id="Vector_7" fill-rule="evenodd" clip-rule="evenodd" d="M7.24737 10.218C7.24737 9.88488 7.52001 9.75675 7.97157 9.75675C8.6191 9.75675 9.43702 9.95322 10.0845 10.3034V8.29602C9.37738 8.01413 8.67874 7.90308 7.97157 7.90308C6.242 7.90308 5.0918 8.80856 5.0918 10.3205C5.0918 12.6782 8.32941 12.3023 8.32941 13.3189C8.32941 13.7118 7.98861 13.8399 7.51149 13.8399C6.80433 13.8399 5.9012 13.5495 5.18552 13.1566V15.1896C5.97788 15.5313 6.77877 15.6765 7.51149 15.6765C9.28366 15.6765 10.502 14.7967 10.502 13.2676C10.4935 10.722 7.24737 11.1748 7.24737 10.218Z" fill="white"/>
</g>
</g>
</svg>
