<svg width="20" height="20" viewBox="0 0 20 20" fill="none" xmlns="http://www.w3.org/2000/svg">
<g id="Iconex/Filled/Document 2">
<g id="Document 2">
<g id="Subtract">
<path fill-rule="evenodd" clip-rule="evenodd" d="M11.875 1.04703C11.8234 1.04352 11.7715 1.04175 11.7194 1.04175H6.66668C4.48055 1.04175 2.70834 2.81395 2.70834 5.00008V15.0001C2.70834 17.1862 4.48055 18.9584 6.66668 18.9584H13.3333C15.5195 18.9584 17.2917 17.1862 17.2917 15.0001V7.29175H14.1667C12.901 7.29175 11.875 6.26573 11.875 5.00008V1.04703ZM6.04168 10.0001C6.04168 9.6549 6.3215 9.37508 6.66668 9.37508H13.3333C13.6785 9.37508 13.9583 9.6549 13.9583 10.0001C13.9583 10.3453 13.6785 10.6251 13.3333 10.6251H6.66668C6.3215 10.6251 6.04168 10.3453 6.04168 10.0001ZM6.66668 13.5417C6.3215 13.5417 6.04168 13.8216 6.04168 14.1667C6.04168 14.5119 6.3215 14.7917 6.66668 14.7917H10C10.3452 14.7917 10.625 14.5119 10.625 14.1667C10.625 13.8216 10.3452 13.5417 10 13.5417H6.66668Z" fill="#A0A3BD"/>
<path d="M16.9346 6.04175C16.882 5.95891 16.8239 5.87916 16.7605 5.80308L13.4799 1.86633C13.3733 1.73842 13.2542 1.62372 13.125 1.52343V5.00008C13.125 5.57538 13.5914 6.04175 14.1667 6.04175H16.9346Z" fill="#A0A3BD"/>
</g>
</g>
</g>
</svg>
