<svg width="16" height="16" viewBox="0 0 16 16" fill="none" xmlns="http://www.w3.org/2000/svg">
<path fill-rule="evenodd" clip-rule="evenodd" d="M0.833313 8.00016C0.833313 4.04212 4.04194 0.833496 7.99998 0.833496C11.958 0.833496 15.1666 4.04212 15.1666 8.00016C15.1666 11.9582 11.958 15.1668 7.99998 15.1668C4.04194 15.1668 0.833313 11.9582 0.833313 8.00016ZM4.69981 8.86654C5.16005 8.86654 5.53314 8.49344 5.53314 8.0332C5.53314 7.57297 5.16005 7.19987 4.69981 7.19987C4.23957 7.19987 3.86648 7.57297 3.86648 8.0332C3.86648 8.49344 4.23957 8.86654 4.69981 8.86654ZM8.86644 8.03337C8.86644 8.4936 8.49334 8.8667 8.0331 8.8667C7.57286 8.8667 7.19977 8.4936 7.19977 8.03337C7.19977 7.57313 7.57286 7.20003 8.0331 7.20003C8.49334 7.20003 8.86644 7.57313 8.86644 8.03337ZM11.3664 8.8667C11.8267 8.8667 12.1998 8.4936 12.1998 8.03337C12.1998 7.57313 11.8267 7.20003 11.3664 7.20003C10.9062 7.20003 10.5331 7.57313 10.5331 8.03337C10.5331 8.4936 10.9062 8.8667 11.3664 8.8667Z" fill="white"/>
</svg>
