<svg width="24" height="24" viewBox="0 0 24 24" fill="none" xmlns="http://www.w3.org/2000/svg">
<g id="united kingdom" clip-path="url(#clip0_155_2533)">
<path id="Vector" d="M12 24C18.6274 24 24 18.6274 24 12C24 5.37258 18.6274 0 12 0C5.37258 0 0 5.37258 0 12C0 18.6274 5.37258 24 12 24Z" fill="#F0F0F0"/>
<g id="Group">
<path id="Vector_2" d="M2.48056 4.69434C1.53796 5.92073 0.827189 7.33424 0.41333 8.86982H6.65605L2.48056 4.69434Z" fill="#0052B4"/>
<path id="Vector_3" d="M23.5865 8.86977C23.1726 7.33424 22.4618 5.92073 21.5193 4.69434L17.3439 8.86977H23.5865Z" fill="#0052B4"/>
<path id="Vector_4" d="M0.41333 15.1309C0.827236 16.6664 1.538 18.0799 2.48056 19.3063L6.65591 15.1309H0.41333Z" fill="#0052B4"/>
<path id="Vector_5" d="M19.3058 2.48086C18.0794 1.53825 16.6659 0.82748 15.1304 0.413574V6.65625L19.3058 2.48086Z" fill="#0052B4"/>
<path id="Vector_6" d="M4.69409 21.5196C5.92048 22.4622 7.334 23.173 8.86953 23.5869V17.3442L4.69409 21.5196Z" fill="#0052B4"/>
<path id="Vector_7" d="M8.86948 0.413574C7.33395 0.82748 5.92044 1.53825 4.69409 2.48081L8.86948 6.6562V0.413574Z" fill="#0052B4"/>
<path id="Vector_8" d="M15.1304 23.5869C16.6659 23.173 18.0794 22.4622 19.3058 21.5196L15.1304 17.3442V23.5869Z" fill="#0052B4"/>
<path id="Vector_9" d="M17.3439 15.1309L21.5193 19.3063C22.4618 18.08 23.1726 16.6664 23.5865 15.1309H17.3439Z" fill="#0052B4"/>
</g>
<g id="Group_2">
<path id="Vector_10" d="M23.8984 10.4348H13.5653H13.5653V0.101578C13.0529 0.034875 12.5305 0 12 0C11.4694 0 10.9471 0.034875 10.4348 0.101578V10.4347V10.4347H0.101578C0.034875 10.9471 0 11.4695 0 12C0 12.5306 0.034875 13.0529 0.101578 13.5652H10.4347H10.4347V23.8984C10.9471 23.9651 11.4694 24 12 24C12.5305 24 13.0529 23.9652 13.5652 23.8984V13.5653V13.5653H23.8984C23.9651 13.0529 24 12.5306 24 12C24 11.4695 23.9651 10.9471 23.8984 10.4348Z" fill="#D80027"/>
<path id="Vector_11" d="M15.1305 15.1304L20.4853 20.4852C20.7316 20.239 20.9665 19.9817 21.1907 19.7148L16.6062 15.1304H15.1305V15.1304Z" fill="#D80027"/>
<path id="Vector_12" d="M8.86951 15.1304H8.86941L3.51465 20.4851C3.76084 20.7314 4.01823 20.9664 4.28504 21.1905L8.86951 16.6059V15.1304Z" fill="#D80027"/>
<path id="Vector_13" d="M8.86951 8.8696V8.86951L3.5147 3.51465C3.26842 3.76084 3.03348 4.01823 2.80933 4.28504L7.39384 8.86955H8.86951V8.8696Z" fill="#D80027"/>
<path id="Vector_14" d="M15.1305 8.86981L20.4854 3.5149C20.2392 3.26862 19.9818 3.03368 19.715 2.80957L15.1305 7.39409V8.86981Z" fill="#D80027"/>
</g>
</g>
<defs>
<clipPath id="clip0_155_2533">
<rect width="24" height="24" fill="white"/>
</clipPath>
</defs>
</svg>
