<svg width="40" height="24" viewBox="0 0 40 24" fill="none" xmlns="http://www.w3.org/2000/svg">
<g id="Group 1000003767">
<rect id="Rectangle 886" width="40" height="24" rx="8" fill="#1A1F71"/>
<path id="path3789" d="M24.3581 7.19995C22.3132 7.19995 20.4858 8.24494 20.4858 10.1756C20.4858 12.3898 23.7268 12.5427 23.7268 13.655C23.7268 14.1234 23.1824 14.5426 22.2526 14.5426C20.933 14.5426 19.9467 13.9568 19.9467 13.9568L19.5247 15.9051C19.5247 15.9051 20.6609 16.4 22.1693 16.4C24.405 16.4 26.1643 15.3037 26.1643 13.3399C26.1643 11.0003 22.9098 10.8519 22.9098 9.81949C22.9098 9.4526 23.3567 9.0506 24.2838 9.0506C25.3299 9.0506 26.1834 9.47665 26.1834 9.47665L26.5964 7.59493C26.5964 7.59493 25.6678 7.19995 24.3581 7.19995ZM5.64912 7.34197L5.59961 7.626C5.59961 7.626 6.45991 7.78123 7.23475 8.09088C8.23241 8.44596 8.30348 8.65267 8.47151 9.29469L10.3025 16.2535H12.7568L16.538 7.34197H14.0893L11.6596 13.401L10.6682 8.26507C10.5773 7.67728 10.1167 7.34197 9.55297 7.34197H5.64912ZM17.5227 7.34197L15.6017 16.2535H17.9368L19.8511 7.34197H17.5227ZM30.5464 7.34197C29.9833 7.34197 29.685 7.63918 29.4661 8.15856L26.045 16.2535H28.4938L28.9675 14.9043H31.9508L32.2389 16.2535H34.3996L32.5146 7.34197H30.5464ZM30.8649 9.74959L31.5907 13.0936H29.6461L30.8649 9.74959Z" fill="#F7B600"/>
</g>
</svg>
