<svg width="40" height="24" viewBox="0 0 40 24" fill="none" xmlns="http://www.w3.org/2000/svg">
<rect width="40" height="24" rx="8" fill="#FFF8E9"/>
<path d="M9 17.061H9.81963L10.679 19.8939L11.5305 17.061H12.2546L13.1061 19.8939L13.9655 17.061H14.7931L13.5517 20.8806H12.7798L11.8966 18.0318L11.0133 20.8806H10.2334L9 17.061Z" fill="#DD8F01"/>
<path d="M16.6048 21C16.1433 21 15.7719 20.8833 15.4908 20.6499C15.2149 20.4111 15.077 20.0902 15.077 19.687C15.077 19.2626 15.2096 18.9363 15.4748 18.7082C15.7454 18.4748 16.1274 18.3581 16.6207 18.3581C17.1459 18.3581 17.5916 18.4642 17.9576 18.6764V18.4775C17.9576 18.1751 17.8648 17.9523 17.6791 17.809C17.4987 17.6605 17.2122 17.5862 16.8197 17.5862C16.5862 17.5862 16.3581 17.6101 16.1353 17.6578C15.9178 17.7003 15.7215 17.7613 15.5465 17.8408V17.1883C15.7056 17.1141 15.9125 17.0557 16.1672 17.0133C16.4218 16.9655 16.6685 16.9416 16.9072 16.9416C17.5385 16.9416 18.0053 17.0822 18.3077 17.3634C18.6154 17.6393 18.7693 18.0239 18.7693 18.5172V20.8806H18.0133V20.4509C17.8488 20.6313 17.6526 20.7692 17.4244 20.8647C17.2016 20.9549 16.9284 21 16.6048 21ZM16.8038 20.3873C17.0584 20.3873 17.2892 20.3369 17.4961 20.2361C17.703 20.1353 17.8568 19.9947 17.9576 19.8143V19.2971C17.6128 19.0743 17.2282 18.9629 16.8038 18.9629C16.4961 18.9629 16.2653 19.0239 16.1114 19.1459C15.9629 19.2626 15.8886 19.443 15.8886 19.687C15.8886 20.1538 16.1937 20.3873 16.8038 20.3873Z" fill="#DD8F01"/>
<path d="M19.7666 15H20.5704V20.8806H19.7666V15Z" fill="#DD8F01"/>
<path d="M21.6084 15H22.4121V20.8806H21.6084V15Z" fill="#DD8F01"/>
<path d="M25.5509 21C24.8453 21 24.291 20.8249 23.8878 20.4748C23.4899 20.1194 23.291 19.6207 23.291 18.9788C23.291 18.3528 23.4687 17.8568 23.8241 17.4907C24.1849 17.1247 24.6968 16.9416 25.3599 16.9416C25.8003 16.9416 26.1743 17.0265 26.482 17.1963C26.7896 17.3607 27.0204 17.5915 27.1743 17.8886C27.3334 18.1804 27.413 18.5146 27.413 18.8912V19.2891H24.0549C24.0814 19.6499 24.2326 19.9204 24.5085 20.1008C24.7896 20.2759 25.169 20.3634 25.6464 20.3634C25.8904 20.3634 26.1371 20.3422 26.3865 20.2997C26.6358 20.252 26.856 20.191 27.0469 20.1167V20.7613C26.8772 20.8302 26.6517 20.8859 26.3705 20.9284C26.0947 20.9761 25.8215 21 25.5509 21ZM26.657 18.7241C26.6464 18.3634 26.527 18.0849 26.2989 17.8886C26.0761 17.687 25.7578 17.5862 25.344 17.5862C24.9408 17.5862 24.6278 17.6897 24.405 17.8966C24.1822 18.1034 24.0655 18.3793 24.0549 18.7241H26.657Z" fill="#DD8F01"/>
<path d="M29.7636 21C29.3764 21 29.0766 20.8886 28.8644 20.6658C28.6575 20.443 28.5541 20.1273 28.5541 19.7188V17.6817H27.9732V17.061H28.5541V15.9151H29.3658V17.061H30.3048V17.6817H29.3658V19.6631C29.3658 19.9178 29.4135 20.0981 29.509 20.2042C29.6098 20.3103 29.7902 20.3634 30.0501 20.3634C30.204 20.3634 30.3578 20.3289 30.5116 20.2599V20.8966C30.3101 20.9655 30.0607 21 29.7636 21Z" fill="#DD8F01"/>
<path opacity="0.4" d="M22.5165 8.64591C22.3415 8.81674 22.2415 9.06258 22.2665 9.32508C22.304 9.77508 22.7165 10.1042 23.1665 10.1042H23.9582V10.6001C23.9582 11.4626 23.254 12.1667 22.3915 12.1667H17.6082C16.7457 12.1667 16.0415 11.4626 16.0415 10.6001V7.79592C16.0415 6.93342 16.7457 6.22925 17.6082 6.22925H22.3915C23.254 6.22925 23.9582 6.93342 23.9582 7.79592V8.39592H23.1165C22.8832 8.39592 22.6707 8.48758 22.5165 8.64591Z" fill="#DD8F01"/>
<path d="M21.1873 4.64601V6.22934H17.6082C16.7457 6.22934 16.0415 6.93351 16.0415 7.79601V6.26685C16.0415 5.77101 16.3457 5.32933 16.8082 5.15433L20.1165 3.90433C20.6332 3.71266 21.1873 4.09184 21.1873 4.64601Z" fill="#DD8F01"/>
<path d="M24.4001 8.82073V9.67909C24.4001 9.90826 24.2167 10.0957 23.9834 10.1041H23.1667C22.7167 10.1041 22.3042 9.77491 22.2667 9.32491C22.2417 9.06241 22.3417 8.81658 22.5167 8.64574C22.6709 8.48741 22.8834 8.39575 23.1167 8.39575H23.9834C24.2167 8.40409 24.4001 8.59157 24.4001 8.82073Z" fill="#DD8F01"/>
<path d="M20.8332 8.3125H17.9165C17.7457 8.3125 17.604 8.17083 17.604 8C17.604 7.82917 17.7457 7.6875 17.9165 7.6875H20.8332C21.004 7.6875 21.1457 7.82917 21.1457 8C21.1457 8.17083 21.004 8.3125 20.8332 8.3125Z" fill="#DD8F01"/>
</svg>
