<svg width="20" height="20" viewBox="0 0 20 20" fill="none" xmlns="http://www.w3.org/2000/svg">
<path fill-rule="evenodd" clip-rule="evenodd" d="M5.83323 5C3.53205 5 1.66656 6.86548 1.66656 9.16667V14.1667C1.66656 16.4679 3.53205 18.3333 5.83323 18.3333H14.1666C16.3979 18.3333 18.2196 16.5794 18.3281 14.375H14.5833C13.0875 14.375 11.875 13.1624 11.875 11.6667C11.875 10.1709 13.0875 8.95833 14.5833 8.95833H18.3281C18.2196 6.75394 16.3979 5 14.1666 5H5.83323ZM14.5833 10.2083H18.3332V13.125H14.5833C13.7779 13.125 13.125 12.4721 13.125 11.6667C13.125 10.8613 13.7779 10.2083 14.5833 10.2083ZM4.99996 13.9583C4.65478 13.9583 4.37496 14.2382 4.37496 14.5833C4.37496 14.9285 4.65478 15.2083 4.99996 15.2083H9.99996C10.3451 15.2083 10.625 14.9285 10.625 14.5833C10.625 14.2382 10.3451 13.9583 9.99996 13.9583H4.99996ZM14.5833 11.0417C14.2381 11.0417 13.9583 11.3215 13.9583 11.6667C13.9583 12.0118 14.2381 12.2917 14.5833 12.2917H14.75C15.0951 12.2917 15.375 12.0118 15.375 11.6667C15.375 11.3215 15.0951 11.0417 14.75 11.0417H14.5833Z" fill="white"/>
<path d="M16.2399 4.16093C15.639 2.50146 13.8838 1.43008 12.0345 1.81083L4.86724 3.28644C3.37026 3.59465 2.15744 4.5815 1.52307 5.88595C2.51262 4.58783 4.07523 3.75008 5.8335 3.75008H14.1668C14.9011 3.75008 15.6013 3.8962 16.2399 4.16093Z" fill="white"/>
</svg>
